<svg width="138" height="119" viewBox="0 0 138 119" fill="none" xmlns="http://www.w3.org/2000/svg">
<path d="M138 94.4833C138 102.832 79.8683 119 68.9749 119C58.0815 119 0 103.126 0 93.6015C0 84.077 0.0960292 -47 0.0960292 -47H137.889C137.889 -47 138 86.1935 138 94.4833Z" fill="#EB2316"/>
<path d="M38.0011 31.4349C38.0011 26.523 39.9219 21.8989 43.4142 18.4099C46.9 14.9208 51.5241 13 56.436 13H99.0001V22.3678H56.436C54.0302 22.3678 51.7569 23.3153 50.0366 25.0323C48.3164 26.7558 47.3689 29.0291 47.3689 31.4349L47.3139 47.16C46.8774 51.3346 43.7311 54.7073 39.6599 55.3281L38.0011 55.5803V31.4349Z" fill="white"/>
<path d="M38 73.8761V64.5083H80.5642C82.97 64.5083 85.2432 63.5609 86.9603 61.8406C88.6806 60.1235 89.628 57.8503 89.628 55.4445L89.6377 40.5181C89.6377 36.0751 92.9489 32.2174 97.3402 31.5512L98.9958 31.299V55.4445C98.9958 60.3563 97.075 64.9804 93.5827 68.4663C90.0937 71.9553 85.4696 73.8761 80.5609 73.8761H38Z" fill="white"/>
<path d="M73.8795 55.6987V43.5049L68.5016 50.1797L63.1236 43.5049V55.6987H56V31.6987H62.7475L68.5016 39.4154L74.2525 31.6987H81V55.6987H73.8795Z" fill="white"/>
<path d="M33.3491 94.285C33.3381 94.307 33.3271 94.34 33.3271 94.362C33.3271 94.417 33.3711 94.472 33.4151 94.516C33.5581 94.67 34.0861 95.165 35.1751 95.165C35.9341 95.165 36.5721 94.934 37.0781 94.274C37.7051 93.46 37.8261 92.283 37.8261 91.249C37.8261 89.06 37.1881 87.278 35.3071 87.278C34.5701 87.278 34.0421 87.509 33.5471 87.938C33.4371 88.026 33.4041 88.092 33.4041 88.147C33.4041 88.18 33.4261 88.224 33.4481 88.257L33.8001 88.752C33.8331 88.807 33.8661 88.84 33.9101 88.84C33.9321 88.84 33.9541 88.829 33.9871 88.807L34.1191 88.708C34.3941 88.488 34.7131 88.246 35.1861 88.246C36.3081 88.246 36.5501 89.577 36.5501 90.479V90.589H34.5701C34.4601 90.589 34.3831 90.622 34.3831 90.776V91.403C34.3831 91.546 34.4381 91.579 34.5591 91.579H36.5501V91.722C36.5501 92.283 36.4841 94.197 35.0871 94.197C34.6801 94.197 34.4051 94.054 34.0421 93.79L33.9211 93.702C33.8881 93.669 33.8441 93.658 33.8111 93.658C33.7671 93.658 33.7341 93.68 33.6901 93.746L33.3491 94.285ZM40.4469 95C40.5679 95 40.6229 94.945 40.6229 94.824V91.568H41.1729C41.6899 91.568 41.9649 91.733 42.1409 92.525L42.3939 93.702C42.6249 94.78 43.0759 95.165 44.0549 95.165C44.1979 95.165 44.2309 95.143 44.2639 95.033L44.4949 94.34C44.5059 94.318 44.5059 94.296 44.5059 94.274C44.5059 94.164 44.3739 94.153 44.3409 94.142L44.1319 94.109C43.8899 94.065 43.6809 94.131 43.4939 93.328L43.2299 92.217C43.0979 91.722 42.7349 91.216 42.2839 91.062C42.8339 90.831 43.0209 90.336 43.1199 89.874L43.2739 89.181C43.3619 88.763 43.4499 88.389 43.8789 88.312L44.0989 88.268C44.1869 88.246 44.2419 88.202 44.2419 88.125C44.2419 88.103 44.2419 88.081 44.2309 88.059L44.0439 87.421C44.0109 87.311 43.9229 87.289 43.8459 87.289C43.6039 87.289 43.0759 87.421 42.7569 87.74C42.4599 88.037 42.3719 88.433 42.2839 88.829L42.0969 89.698C41.9979 90.193 41.7229 90.578 41.1839 90.578H40.6229V87.597C40.6229 87.509 40.5679 87.454 40.4909 87.454H39.5339C39.4789 87.454 39.4239 87.498 39.4239 87.575V94.824C39.4239 94.967 39.4789 95 39.5999 95H40.4469ZM49.6136 94.23L49.2836 93.702C49.2506 93.647 49.2066 93.636 49.1736 93.636C49.1186 93.636 49.0746 93.669 49.0196 93.713C48.6456 93.999 48.3156 94.142 47.9636 94.142C46.9626 94.142 46.4786 93.108 46.4786 90.974C46.4786 89.126 46.9076 88.29 47.8316 88.29C48.3046 88.29 48.6346 88.543 48.9866 88.818C49.0196 88.851 49.0746 88.873 49.1186 88.873C49.1516 88.873 49.1956 88.862 49.2176 88.818L49.5696 88.257C49.6026 88.202 49.6246 88.158 49.6246 88.114C49.6246 88.059 49.5916 88.004 49.5146 87.938C49.0416 87.531 48.4036 87.278 47.7876 87.278C45.6866 87.278 45.1916 89.445 45.1916 91.139C45.1916 93.757 46.1156 95.165 47.8536 95.165C48.4586 95.165 48.9426 95.033 49.5476 94.549C49.6356 94.472 49.6686 94.428 49.6686 94.373C49.6686 94.329 49.6466 94.285 49.6136 94.23ZM51.8873 95C52.0083 95 52.0633 94.945 52.0633 94.824V91.568H52.6133C53.1303 91.568 53.4053 91.733 53.5813 92.525L53.8343 93.702C54.0653 94.78 54.5163 95.165 55.4953 95.165C55.6383 95.165 55.6713 95.143 55.7043 95.033L55.9353 94.34C55.9463 94.318 55.9463 94.296 55.9463 94.274C55.9463 94.164 55.8143 94.153 55.7813 94.142L55.5723 94.109C55.3303 94.065 55.1213 94.131 54.9343 93.328L54.6703 92.217C54.5383 91.722 54.1753 91.216 53.7243 91.062C54.2743 90.831 54.4613 90.336 54.5603 89.874L54.7143 89.181C54.8023 88.763 54.8903 88.389 55.3193 88.312L55.5393 88.268C55.6273 88.246 55.6823 88.202 55.6823 88.125C55.6823 88.103 55.6823 88.081 55.6713 88.059L55.4843 87.421C55.4513 87.311 55.3633 87.289 55.2863 87.289C55.0443 87.289 54.5163 87.421 54.1973 87.74C53.9003 88.037 53.8123 88.433 53.7243 88.829L53.5373 89.698C53.4383 90.193 53.1633 90.578 52.6243 90.578H52.0633V87.597C52.0633 87.509 52.0083 87.454 51.9313 87.454H50.9743C50.9193 87.454 50.8643 87.498 50.8643 87.575V94.824C50.8643 94.967 50.9193 95 51.0403 95H51.8873ZM61.8209 87.63C61.8209 87.487 61.7659 87.454 61.6449 87.454H58.0149C57.9049 87.454 57.8499 87.487 57.8499 87.619V88.763C57.8499 90.49 57.9049 93.108 57.2119 93.779C56.9699 94.01 56.6619 94.087 56.4639 94.109L56.2989 94.131C56.2109 94.142 56.1449 94.197 56.1449 94.296C56.1449 94.318 56.1559 94.34 56.1559 94.362L56.3209 95.011C56.3429 95.11 56.3759 95.165 56.5409 95.165C58.2349 95.165 58.6419 93.262 58.7629 92.217C58.8619 91.293 58.8949 90.303 58.9059 89.511L58.9169 88.444H60.6109V94.824C60.6109 94.967 60.6659 95 60.7869 95H61.6449C61.7659 95 61.8209 94.945 61.8209 94.824V87.63ZM65.0939 90.6V87.63C65.0939 87.465 65.0169 87.454 64.9069 87.454H64.0819C63.9609 87.454 63.8839 87.465 63.8839 87.63V94.835C63.8839 94.978 63.9609 95 64.0709 95H64.9399C65.0829 95 65.0939 94.901 65.0939 94.813V91.59H66.1939C66.2269 93.119 66.7989 95.165 68.8119 95.165C71.1769 95.165 71.3859 92.294 71.3859 91.238C71.3859 90.303 71.2429 87.278 68.8119 87.278C66.6339 87.278 66.2599 89.632 66.2049 90.6H65.0939ZM68.7679 94.197C68.4379 94.197 68.1849 94.098 67.9759 93.878C67.6789 93.57 67.4259 92.899 67.4259 91.216C67.4259 89.511 67.7229 88.84 68.0199 88.543C68.1409 88.422 68.3829 88.246 68.7679 88.246C69.0759 88.246 69.3179 88.356 69.5049 88.543C69.8019 88.84 70.0989 89.5 70.0989 91.227C70.0989 93.185 69.7139 93.724 69.5049 93.922C69.2519 94.164 68.9439 94.197 68.7679 94.197ZM73.5765 91.425C73.5765 91.568 73.6315 91.601 73.7525 91.601H74.1705C74.7865 91.601 75.5235 91.898 75.5235 92.844C75.5235 93.317 75.4025 94.175 74.1925 94.175C73.6425 94.175 73.2355 93.922 72.9165 93.702L72.8065 93.625C72.7515 93.581 72.6965 93.57 72.6635 93.57C72.6195 93.57 72.5975 93.581 72.5755 93.614L72.2345 94.208C72.2125 94.241 72.2125 94.263 72.2125 94.296C72.2125 94.505 72.6635 94.78 72.9605 94.912C73.4115 95.121 73.8735 95.165 74.3575 95.165C74.9295 95.165 75.6225 95.088 76.1835 94.505C76.6785 93.988 76.7665 93.361 76.7665 92.877C76.7665 92.239 76.5355 91.37 75.4355 91.007C76.3265 90.71 76.5465 89.929 76.5465 89.313C76.5465 88.631 76.2715 87.278 74.4125 87.278C73.5655 87.278 72.9055 87.586 72.4875 88.026C72.4215 88.092 72.3885 88.147 72.3885 88.202C72.3885 88.246 72.4105 88.279 72.4435 88.334L72.7515 88.774C72.7845 88.818 72.8285 88.84 72.8835 88.84C72.9275 88.84 72.9715 88.829 73.0045 88.796L73.1255 88.697C73.4665 88.422 73.7855 88.268 74.2145 88.268C74.9735 88.268 75.3585 88.851 75.3585 89.445C75.3585 89.72 75.3035 90.05 75.0395 90.314C74.7315 90.611 74.3245 90.633 74.0605 90.633H73.7525C73.6315 90.633 73.5765 90.688 73.5765 90.809V91.425ZM83.4658 87.63C83.4658 87.509 83.4328 87.454 83.2898 87.454H82.3108C82.2778 87.454 82.1898 87.465 82.1348 87.575L80.1438 91.777C80.0008 92.074 79.7258 92.822 79.6378 93.042H79.6048C79.6598 92.272 79.6818 92.03 79.6818 91.777V87.63C79.6818 87.509 79.6488 87.454 79.5058 87.454H78.6478C78.5048 87.454 78.4718 87.509 78.4718 87.63V94.824C78.4718 94.945 78.5268 95 78.6478 95H79.5278C79.6708 95 79.6928 94.945 79.7368 94.846L81.8488 90.446C82.0468 90.039 82.1788 89.731 82.2998 89.291H82.3328C82.2888 89.632 82.2558 90.017 82.2558 90.391V94.824C82.2558 94.967 82.3108 95 82.4318 95H83.2898C83.4108 95 83.4658 94.967 83.4658 94.824V87.63ZM90.1604 92.888C90.1604 91.975 89.7204 91.304 88.7964 91.051C89.5334 90.699 89.8854 90.149 89.8854 89.324C89.8854 88.774 89.6764 88.246 89.3354 87.916C88.9614 87.553 88.5654 87.454 87.5094 87.454H85.7054C85.5404 87.454 85.5294 87.476 85.5294 87.641V94.813C85.5294 94.978 85.5404 95 85.7054 95H87.4434C88.1694 95 88.3344 94.989 88.7084 94.901C89.5774 94.714 90.1604 93.889 90.1604 92.888ZM88.6534 89.456C88.6534 90.281 88.2464 90.688 87.3994 90.688H86.6844V88.367H87.4874C88.3124 88.367 88.6534 88.686 88.6534 89.456ZM88.9174 92.833C88.9174 93.669 88.4774 94.032 87.4874 94.032H86.6844V91.612H87.4654C88.4664 91.612 88.9174 92.008 88.9174 92.833ZM96.675 94.813V87.641C96.675 87.476 96.642 87.454 96.477 87.454H95.652C95.487 87.454 95.465 87.476 95.465 87.641V90.611H93.045V87.641C93.045 87.476 93.001 87.454 92.847 87.454H92.011C91.846 87.454 91.835 87.476 91.835 87.641V94.813C91.835 94.978 91.846 95 92.011 95H92.847C93.001 95 93.045 94.978 93.045 94.813V91.546H95.465V94.813C95.465 94.978 95.487 95 95.652 95H96.477C96.642 95 96.675 94.978 96.675 94.813ZM103.45 91.172C103.45 88.587 102.592 87.278 100.887 87.278C98.9623 87.278 98.2473 88.972 98.2473 91.183C98.2473 93.845 99.1053 95.165 100.81 95.165C102.548 95.165 103.45 93.812 103.45 91.172ZM102.163 91.216C102.163 93.273 101.756 94.197 100.843 94.197C99.8863 94.197 99.5343 93.097 99.5343 91.205C99.5343 89.181 99.9523 88.246 100.865 88.246C101.778 88.246 102.163 89.324 102.163 91.216Z" fill="white"/>
</svg>
