<svg width="105" height="41" viewBox="0 0 105 41" fill="none" xmlns="http://www.w3.org/2000/svg">
<path d="M-0.000488281 0L104.5 2.5L94.9995 39L5.99951 41L-0.000488281 0Z" fill="url(#paint0_linear)"/>
<path d="M26.4315 21.132H27.3835C28.4755 21.132 29.1195 21.72 29.2875 22.784L29.7355 25.668C30.2675 29.14 33.2075 29.476 35.0835 29.476C35.5875 29.476 35.6435 29.28 35.7275 29.056L36.7355 25.892C36.7635 25.836 36.7635 25.808 36.7635 25.752C36.7635 25.5 36.5115 25.416 36.3435 25.36L35.7835 25.22C35.2235 25.052 34.6635 24.968 34.3835 23.568L34.0755 21.972C33.8235 20.628 33.0115 19.48 31.4995 19.004V18.92C32.9275 18.5 33.5155 17.352 33.7115 16.484L34.0195 15.084C34.2155 14.02 34.6355 13.544 35.3075 13.376L36.0355 13.18C36.1195 13.152 36.3435 13.068 36.3435 12.816C36.3435 12.76 36.3435 12.704 36.3155 12.648L35.4475 9.67998C35.3635 9.42798 35.1675 9.31598 34.7195 9.31598C32.7315 9.31598 30.1835 10.436 29.6515 13.32L29.3435 14.972C29.1195 16.344 28.5595 17.072 27.3275 17.072H26.4315V10.128C26.4315 9.90398 26.3195 9.79198 26.0955 9.79198H21.4475C21.1395 9.79198 20.9995 9.87598 20.9995 10.212V28.524C20.9995 28.804 21.0275 29 21.4475 29H26.1235C26.2635 29 26.4315 28.916 26.4315 28.664V21.132Z" fill="#503010"/>
<path d="M45.8698 22.756L45.6738 23.568C45.3658 24.884 44.7778 25.416 43.5458 25.416C42.2298 25.416 41.1938 24.66 40.9698 24.66C40.9138 24.66 40.8298 24.716 40.8018 24.772L39.7658 27.88C39.7378 27.964 39.7098 28.048 39.7098 28.104C39.7098 28.272 39.8498 28.412 40.4658 28.72C40.8858 28.916 42.1178 29.476 44.0498 29.476C46.5418 29.476 48.8098 28.776 50.2658 23.428L53.7378 10.604C53.8218 10.296 53.8498 10.212 53.8498 10.128C53.8498 9.87598 53.5698 9.81998 53.2618 9.79198L48.9778 9.56798C48.6698 9.56798 48.5858 9.70798 48.4738 10.184L47.4378 15.252C47.2978 15.952 47.0738 16.848 46.5138 19.452H46.3738C45.8138 17.128 45.6178 16.372 45.3658 15.448L43.9378 10.128C43.7978 9.65198 43.6578 9.56798 43.4338 9.56798C43.3218 9.56798 43.1818 9.59598 43.0138 9.59598L39.0098 9.81998C38.3658 9.84798 38.1978 9.95998 38.1978 10.156C38.1978 10.268 38.2538 10.38 38.3378 10.632L42.8178 22.504C42.8738 22.644 42.9018 22.756 43.1538 22.756H45.8698Z" fill="#503010"/>
<path d="M69.8112 15.336C69.8112 13.684 69.1392 12.06 68.0472 11.108C66.8712 10.1 65.3312 9.79198 62.6152 9.79198H57.0992C56.5672 9.79198 56.5112 9.81998 56.5112 10.352V28.412C56.5112 28.944 56.5672 29 57.0992 29H61.3832C61.8592 29 61.9712 28.944 61.9712 28.412V21.832H62.8392C67.0392 21.832 69.8112 19.228 69.8112 15.336ZM64.9112 15.616C64.9112 17.156 64.3512 17.744 62.6152 17.744H61.9712V13.712H62.7552C64.1552 13.712 64.9112 14.16 64.9112 15.616Z" fill="#503010"/>
<path d="M84.485 27.124L83.113 23.932C83.029 23.764 82.945 23.68 82.861 23.68C82.609 23.68 81.265 25.024 79.501 25.024C77.961 25.024 76.617 23.624 76.617 18.64C76.617 14.86 77.821 13.768 79.109 13.768C80.425 13.768 81.657 14.804 82.553 15.224C82.637 15.252 82.693 15.28 82.777 15.28C82.889 15.28 83.001 15.224 83.085 15.056L84.429 11.836C84.457 11.724 84.485 11.668 84.485 11.584C84.485 11.388 84.373 11.248 84.149 11.08C82.861 9.98798 80.733 9.31598 78.969 9.31598C76.813 9.31598 74.881 10.1 73.453 11.612C71.717 13.432 71.129 15.868 71.129 19.2C71.129 25.528 73.705 29.476 79.137 29.476C80.873 29.476 84.541 28.524 84.541 27.404C84.541 27.32 84.541 27.236 84.485 27.124Z" fill="#503010"/>
<defs>
<linearGradient id="paint0_linear" x1="-14.0005" y1="7.00002" x2="106" y2="44" gradientUnits="userSpaceOnUse">
<stop stop-color="#EFB748"/>
<stop offset="0.223958" stop-color="#F8DFA0"/>
<stop offset="0.421875" stop-color="#EFB748"/>
<stop offset="0.661458" stop-color="#F8DF9F"/>
<stop offset="1" stop-color="#EFB748"/>
</linearGradient>
</defs>
</svg>
