<svg width="255" height="95" viewBox="0 0 255 95" fill="none" xmlns="http://www.w3.org/2000/svg">
<path d="M173 63L18 68.0526L22.8279 91.6316L169.951 95L173 63Z" fill="#4A2116"/>
<path d="M42.5047 77.8554C42.5467 77.7854 42.5747 77.7154 42.2807 77.5054C41.7347 77.1134 41.0767 76.9174 40.4747 76.9174C39.0607 76.9174 37.6747 78.0654 37.6747 80.6134C37.6747 83.3714 39.1307 84.0294 40.4047 84.0294C41.0347 84.0294 41.5807 83.8474 41.9867 83.6654C42.4207 83.4554 42.5047 83.3714 42.5047 83.3154C42.5047 83.2874 42.5047 83.2594 42.4907 83.2314L42.2387 82.6014C42.2247 82.5454 42.1827 82.5314 42.1687 82.5314C42.1547 82.5314 42.1547 82.5314 42.1407 82.5314C42.0847 82.5454 42.0287 82.5734 41.9727 82.6014C41.5107 82.8534 40.9927 83.0914 40.4327 83.0914C38.9487 83.0914 38.8227 81.5234 38.8227 80.4734C38.8227 79.8574 38.8647 77.8554 40.5587 77.8554C41.0907 77.8554 41.4407 78.0514 41.9307 78.4434C42.0007 78.4994 42.0427 78.5414 42.0987 78.5414C42.1407 78.5414 42.1547 78.5134 42.1687 78.4854L42.5047 77.8554ZM46.9416 79.3394C46.9416 83.7494 49.1116 84.0294 49.7836 84.0294C50.4556 84.0294 52.6256 83.7494 52.6256 79.3394C52.6256 74.9014 50.4416 74.6354 49.7836 74.6354C49.1256 74.6354 46.9416 74.9014 46.9416 79.3394ZM48.0896 79.3394C48.0896 78.1354 48.2016 75.6154 49.7836 75.6154C51.3656 75.6154 51.4776 78.1354 51.4776 79.3394C51.4776 80.5294 51.3796 83.0494 49.7836 83.0494C48.1876 83.0494 48.0896 80.5294 48.0896 79.3394ZM58.2219 83.0914C58.2219 83.0074 58.2079 82.9234 58.0539 82.9234H56.7939V74.9994C56.7939 74.9154 56.7799 74.8314 56.6259 74.8314H55.9119L53.4059 76.5814C53.3639 76.6094 53.3079 76.6514 53.3079 76.6934C53.3079 76.7074 53.3079 76.7214 53.3499 76.7914L53.5599 77.1834C53.5739 77.2114 53.5879 77.2534 53.6439 77.2534C53.6579 77.2534 53.6999 77.2534 53.7979 77.1974L55.7299 76.0774V82.9234H54.3019C54.1479 82.9234 54.1339 83.0074 54.1339 83.0914V83.6654C54.1339 83.8194 54.2179 83.8334 54.3019 83.8334H58.0539C58.1379 83.8334 58.2219 83.8194 58.2219 83.6654V83.0914ZM61.9 83.0494C61.9 82.5174 61.452 82.0694 60.92 82.0694C60.388 82.0694 59.94 82.5174 59.94 83.0494C59.94 83.5814 60.388 84.0294 60.92 84.0294C61.452 84.0294 61.9 83.5814 61.9 83.0494ZM63.2931 79.3394C63.2931 83.7494 65.4631 84.0294 66.1351 84.0294C66.8071 84.0294 68.9771 83.7494 68.9771 79.3394C68.9771 74.9014 66.7931 74.6354 66.1351 74.6354C65.4771 74.6354 63.2931 74.9014 63.2931 79.3394ZM64.4411 79.3394C64.4411 78.1354 64.5531 75.6154 66.1351 75.6154C67.7171 75.6154 67.8291 78.1354 67.8291 79.3394C67.8291 80.5294 67.7311 83.0494 66.1351 83.0494C64.5391 83.0494 64.4411 80.5294 64.4411 79.3394ZM75.2873 75.3494V74.9994C75.2873 74.9154 75.2733 74.8314 75.1193 74.8314H70.3313C70.1773 74.8314 70.1633 74.9154 70.1633 74.9994V75.6434C70.1633 75.7274 70.1773 75.8114 70.3313 75.8114H73.9713L70.9473 83.5954C70.9193 83.6654 70.8773 83.7354 70.9193 83.7774C70.9473 83.8194 71.0453 83.8334 71.0733 83.8334L71.8993 83.9594C72.0113 83.9734 72.0393 83.8894 72.0533 83.8334L75.2873 75.3494ZM77.8414 83.0494C77.8414 82.5174 77.3934 82.0694 76.8614 82.0694C76.3294 82.0694 75.8814 82.5174 75.8814 83.0494C75.8814 83.5814 76.3294 84.0294 76.8614 84.0294C77.3934 84.0294 77.8414 83.5814 77.8414 83.0494ZM84.5145 83.0214C84.5145 82.9374 84.5005 82.8534 84.3465 82.8534H80.6925C80.8325 81.7614 81.2665 81.0334 82.0365 80.3894C82.3725 80.1094 82.7085 79.8714 82.8485 79.7734C83.6605 79.1994 84.5285 78.6114 84.5285 77.1694C84.5285 75.6434 83.5765 74.6354 82.1485 74.6354C80.9305 74.6354 80.0625 75.2934 79.6845 76.1474C79.6145 76.3154 79.4885 76.6654 79.4885 76.8054C79.4885 76.9034 79.5305 76.9174 79.6005 76.9314L80.2585 77.1274C80.4125 77.1694 80.4685 76.9734 80.5385 76.8054C80.6645 76.5114 80.8185 76.2034 81.0985 75.9654C81.3365 75.7694 81.7005 75.6154 82.0785 75.6154C82.8205 75.6154 83.3805 76.1754 83.3805 77.1134C83.3805 78.1494 82.7645 78.5694 82.3025 78.8774C82.0365 79.0594 81.8125 79.1994 81.4345 79.4934C80.5525 80.1934 79.4605 81.2714 79.4605 83.5394V83.6654C79.4605 83.7494 79.4745 83.8334 79.6285 83.8334H84.3465C84.4305 83.8334 84.5145 83.8194 84.5145 83.6654V83.0214ZM89.9406 83.0914C89.9406 83.0074 89.9266 82.9234 89.7726 82.9234H88.5126V74.9994C88.5126 74.9154 88.4986 74.8314 88.3446 74.8314H87.6306L85.1246 76.5814C85.0826 76.6094 85.0266 76.6514 85.0266 76.6934C85.0266 76.7074 85.0266 76.7214 85.0686 76.7914L85.2786 77.1834C85.2926 77.2114 85.3066 77.2534 85.3626 77.2534C85.3766 77.2534 85.4186 77.2534 85.5166 77.1974L87.4486 76.0774V82.9234H86.0206C85.8666 82.9234 85.8526 83.0074 85.8526 83.0914V83.6654C85.8526 83.8194 85.9366 83.8334 86.0206 83.8334H89.7726C89.8566 83.8334 89.9406 83.8194 89.9406 83.6654V83.0914ZM96.4842 77.9814H99.0462V83.6654C99.0462 83.8194 99.1302 83.8334 99.2142 83.8334H99.9422C100.026 83.8334 100.11 83.8194 100.11 83.6654V77.2814C100.11 77.1974 100.096 77.1134 99.9422 77.1134H95.5882C95.5042 77.1134 95.4202 77.1274 95.4202 77.2814V83.6654C95.4202 83.7494 95.4342 83.8334 95.5882 83.8334H96.3162C96.4702 83.8334 96.4842 83.7494 96.4842 83.6654V77.9814ZM104.772 76.9174C103.568 76.9174 101.986 77.6734 101.986 80.4734C101.986 83.2734 103.568 84.0294 104.772 84.0294C105.976 84.0294 107.558 83.2734 107.558 80.4734C107.558 77.6734 105.976 76.9174 104.772 76.9174ZM104.772 77.7854C106.34 77.7854 106.41 79.7454 106.41 80.4734C106.41 81.2014 106.34 83.1614 104.772 83.1614C103.204 83.1614 103.134 81.2014 103.134 80.4734C103.134 79.7454 103.204 77.7854 104.772 77.7854ZM117.489 83.0914C117.489 83.0074 117.475 82.9234 117.321 82.9234H116.061V74.9994C116.061 74.9154 116.047 74.8314 115.893 74.8314H115.179L112.673 76.5814C112.631 76.6094 112.575 76.6514 112.575 76.6934C112.575 76.7074 112.575 76.7214 112.617 76.7914L112.827 77.1834C112.841 77.2114 112.855 77.2534 112.911 77.2534C112.925 77.2534 112.967 77.2534 113.065 77.1974L114.997 76.0774V82.9234H113.569C113.415 82.9234 113.401 83.0074 113.401 83.0914V83.6654C113.401 83.8194 113.485 83.8334 113.569 83.8334H117.321C117.405 83.8334 117.489 83.8194 117.489 83.6654V83.0914ZM120.345 75.8114H123.299C123.467 75.8114 123.467 75.7414 123.467 75.6574V74.9994C123.467 74.9154 123.453 74.8314 123.299 74.8314H119.603C119.449 74.8314 119.449 74.8734 119.435 75.0134L119.001 79.4934C119.001 79.5354 119.001 79.6194 119.029 79.6614C119.043 79.6754 119.071 79.6894 119.141 79.7174L119.659 79.8994C119.729 79.9274 119.757 79.9274 119.869 79.8294C120.065 79.6614 120.177 79.5494 120.289 79.4654C120.611 79.2274 121.059 79.0314 121.521 79.0314C121.885 79.0314 122.949 79.1434 122.949 80.8234C122.949 81.4114 122.879 83.0494 120.737 83.0494C120.149 83.0494 119.827 82.9374 119.519 82.8534C119.379 82.8114 119.337 82.7834 119.267 82.7834C119.169 82.7834 119.141 82.8674 119.141 82.8814L118.987 83.5114C118.959 83.6094 118.931 83.7214 119.225 83.8054C119.757 83.9594 120.247 84.0294 120.709 84.0294C121.941 84.0294 122.627 83.6514 122.977 83.3854C123.593 82.8954 124.097 81.9574 124.097 80.7674C124.097 79.2694 123.201 78.0514 121.717 78.0514C120.961 78.0514 120.457 78.3594 120.219 78.5274L120.037 78.6534L120.345 75.8114ZM127.675 83.0494C127.675 82.5174 127.227 82.0694 126.695 82.0694C126.163 82.0694 125.715 82.5174 125.715 83.0494C125.715 83.5814 126.163 84.0294 126.695 84.0294C127.227 84.0294 127.675 83.5814 127.675 83.0494ZM129.069 79.3394C129.069 83.7494 131.239 84.0294 131.911 84.0294C132.583 84.0294 134.753 83.7494 134.753 79.3394C134.753 74.9014 132.569 74.6354 131.911 74.6354C131.253 74.6354 129.069 74.9014 129.069 79.3394ZM130.217 79.3394C130.217 78.1354 130.329 75.6154 131.911 75.6154C133.493 75.6154 133.605 78.1354 133.605 79.3394C133.605 80.5294 133.507 83.0494 131.911 83.0494C130.315 83.0494 130.217 80.5294 130.217 79.3394ZM138.3 79.0454C137.068 79.4514 136.312 80.4174 136.312 81.4954C136.312 82.7834 137.348 84.0294 139.28 84.0294C141.212 84.0294 142.248 82.7834 142.248 81.4954C142.248 80.4174 141.492 79.4514 140.26 79.0454C140.75 78.8354 141.842 78.2054 141.842 76.7634C141.842 75.6154 140.974 74.6354 139.28 74.6354C137.586 74.6354 136.718 75.6154 136.718 76.7634C136.718 78.2054 137.81 78.8354 138.3 79.0454ZM139.28 78.6114L139.224 78.5834C138.132 78.0374 137.852 77.3234 137.852 76.8474C137.852 76.1474 138.412 75.5734 139.28 75.5734C140.148 75.5734 140.708 76.1474 140.708 76.8474C140.708 77.3234 140.428 78.0374 139.336 78.5834L139.28 78.6114ZM139.28 79.6054L139.406 79.6614C140.078 79.9554 141.1 80.4314 141.1 81.5654C141.1 82.2374 140.596 83.0914 139.28 83.0914C137.964 83.0914 137.46 82.2374 137.46 81.5654C137.46 80.4314 138.482 79.9554 139.154 79.6614L139.28 79.6054ZM145.613 83.0494C145.613 82.5174 145.165 82.0694 144.633 82.0694C144.101 82.0694 143.653 82.5174 143.653 83.0494C143.653 83.5814 144.101 84.0294 144.633 84.0294C145.165 84.0294 145.613 83.5814 145.613 83.0494ZM152.286 83.0214C152.286 82.9374 152.272 82.8534 152.118 82.8534H148.464C148.604 81.7614 149.038 81.0334 149.808 80.3894C150.144 80.1094 150.48 79.8714 150.62 79.7734C151.432 79.1994 152.3 78.6114 152.3 77.1694C152.3 75.6434 151.348 74.6354 149.92 74.6354C148.702 74.6354 147.834 75.2934 147.456 76.1474C147.386 76.3154 147.26 76.6654 147.26 76.8054C147.26 76.9034 147.302 76.9174 147.372 76.9314L148.03 77.1274C148.184 77.1694 148.24 76.9734 148.31 76.8054C148.436 76.5114 148.59 76.2034 148.87 75.9654C149.108 75.7694 149.472 75.6154 149.85 75.6154C150.592 75.6154 151.152 76.1754 151.152 77.1134C151.152 78.1494 150.536 78.5694 150.074 78.8774C149.808 79.0594 149.584 79.1994 149.206 79.4934C148.324 80.1934 147.232 81.2714 147.232 83.5394V83.6654C147.232 83.7494 147.246 83.8334 147.4 83.8334H152.118C152.202 83.8334 152.286 83.8194 152.286 83.6654V83.0214ZM157.712 83.0914C157.712 83.0074 157.698 82.9234 157.544 82.9234H156.284V74.9994C156.284 74.9154 156.27 74.8314 156.116 74.8314H155.402L152.896 76.5814C152.854 76.6094 152.798 76.6514 152.798 76.6934C152.798 76.7074 152.798 76.7214 152.84 76.7914L153.05 77.1834C153.064 77.2114 153.078 77.2534 153.134 77.2534C153.148 77.2534 153.19 77.2534 153.288 77.1974L155.22 76.0774V82.9234H153.792C153.638 82.9234 153.624 83.0074 153.624 83.0914V83.6654C153.624 83.8194 153.708 83.8334 153.792 83.8334H157.544C157.628 83.8334 157.712 83.8194 157.712 83.6654V83.0914Z" fill="#EDCB80"/>
<path d="M239.167 0L98.3333 5L102.72 35L236.396 44.1667L239.167 0Z" fill="url(#paint0_linear)"/>
<path d="M118.126 20.5359V11.3984C118.126 11.1575 118.098 11.115 117.829 11.115H111.284C111.015 11.115 111.001 11.1575 111.001 11.3984V20.5359C111.001 20.805 111.015 20.8334 111.284 20.8334H113.451C113.692 20.8334 113.749 20.805 113.749 20.5359V13.3534H115.378V20.5359C115.378 20.805 115.392 20.8334 115.661 20.8334H117.829C118.098 20.8334 118.126 20.805 118.126 20.5359Z" fill="#EDCB80"/>
<path d="M127.224 13.92C127.224 13.0842 126.884 12.2625 126.331 11.7809C125.736 11.2709 124.957 11.115 123.583 11.115H120.792C120.523 11.115 120.494 11.1292 120.494 11.3984V20.5359C120.494 20.805 120.523 20.8334 120.792 20.8334H122.959C123.2 20.8334 123.257 20.805 123.257 20.5359V17.2067H123.696C125.821 17.2067 127.224 15.8892 127.224 13.92ZM124.744 14.0617C124.744 14.8409 124.461 15.1384 123.583 15.1384H123.257V13.0984H123.654C124.362 13.0984 124.744 13.325 124.744 14.0617Z" fill="#EDCB80"/>
<path d="M132.551 10.8742C131.673 10.8742 130.624 11.0725 129.803 11.965C128.712 13.1409 128.627 14.9825 128.627 15.9742C128.627 16.9659 128.712 18.8075 129.803 19.9834C130.624 20.8759 131.673 21.0742 132.551 21.0742C133.429 21.0742 134.478 20.8759 135.299 19.9834C136.39 18.8075 136.475 16.9659 136.475 15.9742C136.475 14.9825 136.39 13.1409 135.299 11.965C134.478 11.0725 133.429 10.8742 132.551 10.8742ZM132.551 12.9142C132.763 12.9142 132.933 13.0134 133.075 13.155C133.245 13.325 133.698 13.9059 133.698 15.9742C133.698 16.9234 133.599 19.0342 132.551 19.0342C132.338 19.0342 132.183 18.9634 132.027 18.7934C131.786 18.5242 131.403 17.8725 131.403 15.9742C131.403 14.8834 131.545 12.9142 132.551 12.9142Z" fill="#EDCB80"/>
<path d="M146.018 20.4367L143.298 15.7192L145.536 11.7384C145.593 11.6392 145.621 11.5684 145.621 11.5117C145.621 11.4409 145.565 11.3842 145.381 11.3559L143.128 10.945C143.057 10.9309 143.001 10.9167 142.958 10.9167C142.873 10.9167 142.831 10.9592 142.76 11.115L141.981 13.0134C141.896 13.2259 141.825 13.4525 141.74 13.7359C141.669 13.4667 141.556 13.2259 141.456 13.0134L140.606 11.1434C140.536 10.9875 140.507 10.945 140.436 10.945C140.394 10.945 140.323 10.9592 140.238 10.9734L137.971 11.3559C137.787 11.3842 137.716 11.455 137.716 11.54C137.716 11.5967 137.745 11.6675 137.801 11.7525L140.196 15.6909L137.49 20.3659C137.433 20.465 137.405 20.55 137.405 20.6067C137.405 20.6917 137.476 20.7484 137.646 20.7625L139.941 21.0175C140.026 21.0317 140.096 21.0459 140.139 21.0459C140.21 21.0459 140.252 21.0034 140.309 20.8617L141.499 18.4817C141.598 18.2975 141.683 18.085 141.754 17.7734C141.853 18.0709 141.91 18.2834 141.995 18.4675L143.171 20.8759C143.241 21.0175 143.298 21.0459 143.369 21.0459C143.411 21.0459 143.454 21.0317 143.525 21.0317L145.862 20.8192C146.046 20.805 146.117 20.7484 146.117 20.6634C146.117 20.6067 146.075 20.5359 146.018 20.4367Z" fill="#EDCB80"/>
<path d="M150.819 10.8742C149.941 10.8742 148.893 11.0725 148.071 11.965C146.98 13.1409 146.895 14.9825 146.895 15.9742C146.895 16.9659 146.98 18.8075 148.071 19.9834C148.893 20.8759 149.941 21.0742 150.819 21.0742C151.698 21.0742 152.746 20.8759 153.568 19.9834C154.658 18.8075 154.743 16.9659 154.743 15.9742C154.743 14.9825 154.658 13.1409 153.568 11.965C152.746 11.0725 151.698 10.8742 150.819 10.8742ZM150.819 12.9142C151.032 12.9142 151.202 13.0134 151.343 13.155C151.513 13.325 151.967 13.9059 151.967 15.9742C151.967 16.9234 151.868 19.0342 150.819 19.0342C150.607 19.0342 150.451 18.9634 150.295 18.7934C150.054 18.5242 149.672 17.8725 149.672 15.9742C149.672 14.8834 149.813 12.9142 150.819 12.9142Z" fill="#EDCB80"/>
<path d="M162.594 20.8334V22.93C162.594 23.1 162.665 23.1425 162.807 23.1425H164.776C164.889 23.1425 164.946 23.0859 164.946 22.9725V18.8925C164.946 18.7084 164.847 18.6375 164.705 18.6375H163.997V11.285C163.997 11.1292 163.897 11.115 163.784 11.115H157.947C157.792 11.115 157.721 11.1575 157.721 11.3275V13.2684C157.721 16.0875 157.437 17.3059 156.715 18.6375H156.092C155.978 18.6375 155.851 18.68 155.851 18.8925V22.93C155.851 23.1 155.922 23.1425 156.077 23.1425H157.99C158.132 23.1425 158.202 23.1142 158.202 22.9442V20.8334H162.594ZM161.362 18.6375H159.265C159.619 17.9434 159.747 17.4334 159.888 16.7959C160.016 16.1867 160.143 15.4784 160.143 14.6992V13.3109H161.362V18.6375Z" fill="#EDCB80"/>
<path d="M174.385 11.3134C174.385 11.1434 174.286 11.115 174.158 11.115H171.622C171.438 11.115 171.367 11.2142 171.325 11.3134L170.277 13.9625C169.837 15.0675 169.625 15.4642 169.157 16.7109H169.072C169.087 16.5975 169.2 14.9117 169.2 14.0759V11.285C169.2 11.1717 169.143 11.115 169.03 11.115H166.848C166.692 11.115 166.622 11.1575 166.622 11.3275V20.6634C166.622 20.7767 166.678 20.8334 166.792 20.8334H169.228C169.398 20.8334 169.469 20.6917 169.512 20.6067L170.758 17.6175C171.481 15.875 171.707 15.2234 171.863 14.7134H171.934C171.892 15.195 171.807 16.385 171.807 17.0792V20.6209C171.807 20.7909 171.877 20.8334 172.033 20.8334H174.172C174.286 20.8334 174.385 20.8192 174.385 20.6634V11.3134Z" fill="#EDCB80"/>
<path d="M183.368 11.455C183.382 11.3842 183.382 11.3275 183.382 11.285C183.382 11.1575 183.325 11.115 183.113 11.115H176.454C176.185 11.115 176.157 11.1575 176.157 11.3984V13.1692C176.157 13.4384 176.185 13.4667 176.454 13.4667H178.282V20.5359C178.282 20.805 178.31 20.8334 178.579 20.8334H180.747C181.016 20.8334 181.03 20.805 181.03 20.5359V13.4667H182.744C182.957 13.4667 182.999 13.4242 183.042 13.2259L183.368 11.455Z" fill="#EDCB80"/>
<path d="M190.912 11.455C190.926 11.3842 190.94 11.3134 190.94 11.2709C190.94 11.1575 190.883 11.115 190.671 11.115H185.146C184.877 11.115 184.848 11.1575 184.848 11.3984V20.5359C184.848 20.805 184.877 20.8334 185.146 20.8334H190.557C190.827 20.8334 190.841 20.805 190.841 20.5359V18.8925C190.841 18.6517 190.827 18.6092 190.557 18.6092H187.597V16.9517H189.877C190.118 16.9517 190.175 16.9092 190.175 16.6684V15.0392C190.175 14.77 190.118 14.7417 189.877 14.7417H187.597V13.325H190.359C190.543 13.325 190.642 13.2967 190.671 13.0984L190.912 11.455Z" fill="#EDCB80"/>
<path d="M199.874 16.8525H200.356C200.909 16.8525 201.234 17.15 201.319 17.6884L201.546 19.1475C201.815 20.9042 203.303 21.0742 204.252 21.0742C204.507 21.0742 204.535 20.975 204.578 20.8617L205.088 19.2609C205.102 19.2325 205.102 19.2184 205.102 19.19C205.102 19.0625 204.974 19.02 204.889 18.9917L204.606 18.9209C204.323 18.8359 204.039 18.7934 203.898 18.085L203.742 17.2775C203.614 16.5975 203.204 16.0167 202.439 15.7759V15.7334C203.161 15.5209 203.459 14.94 203.558 14.5009L203.714 13.7925C203.813 13.2542 204.025 13.0134 204.365 12.9284L204.734 12.8292C204.776 12.815 204.889 12.7725 204.889 12.645C204.889 12.6167 204.889 12.5884 204.875 12.56L204.436 11.0584C204.394 10.9309 204.294 10.8742 204.068 10.8742C203.062 10.8742 201.773 11.4409 201.504 12.9L201.348 13.7359C201.234 14.43 200.951 14.7984 200.328 14.7984H199.874V11.285C199.874 11.1717 199.818 11.115 199.704 11.115H197.353C197.197 11.115 197.126 11.1575 197.126 11.3275V20.5925C197.126 20.7342 197.14 20.8334 197.353 20.8334H199.719C199.789 20.8334 199.874 20.7909 199.874 20.6634V16.8525Z" fill="#EDCB80"/>
<path d="M209.531 17.6742L209.432 18.085C209.276 18.7509 208.978 19.02 208.355 19.02C207.689 19.02 207.165 18.6375 207.052 18.6375C207.023 18.6375 206.981 18.6659 206.967 18.6942L206.442 20.2667C206.428 20.3092 206.414 20.3517 206.414 20.38C206.414 20.465 206.485 20.5359 206.797 20.6917C207.009 20.7909 207.632 21.0742 208.61 21.0742C209.871 21.0742 211.018 20.72 211.755 18.0142L213.512 11.5259C213.554 11.37 213.568 11.3275 213.568 11.285C213.568 11.1575 213.427 11.1292 213.271 11.115L211.103 11.0017C210.947 11.0017 210.905 11.0725 210.848 11.3134L210.324 13.8775C210.253 14.2317 210.14 14.685 209.857 16.0025H209.786C209.502 14.8267 209.403 14.4442 209.276 13.9767L208.553 11.285C208.482 11.0442 208.412 11.0017 208.298 11.0017C208.242 11.0017 208.171 11.0159 208.086 11.0159L206.06 11.1292C205.734 11.1434 205.649 11.2 205.649 11.2992C205.649 11.3559 205.677 11.4125 205.72 11.54L207.987 17.5467C208.015 17.6175 208.029 17.6742 208.157 17.6742H209.531Z" fill="#EDCB80"/>
<path d="M221.971 13.92C221.971 13.0842 221.631 12.2625 221.079 11.7809C220.484 11.2709 219.705 11.115 218.33 11.115H215.54C215.27 11.115 215.242 11.1292 215.242 11.3984V20.5359C215.242 20.805 215.27 20.8334 215.54 20.8334H217.707C217.948 20.8334 218.005 20.805 218.005 20.5359V17.2067H218.444C220.569 17.2067 221.971 15.8892 221.971 13.92ZM219.492 14.0617C219.492 14.8409 219.209 15.1384 218.33 15.1384H218.005V13.0984H218.401C219.11 13.0984 219.492 13.325 219.492 14.0617Z" fill="#EDCB80"/>
<path d="M230.229 19.8842L229.535 18.2692C229.492 18.1842 229.45 18.1417 229.407 18.1417C229.28 18.1417 228.6 18.8217 227.707 18.8217C226.928 18.8217 226.248 18.1134 226.248 15.5917C226.248 13.6792 226.857 13.1267 227.509 13.1267C228.175 13.1267 228.798 13.6509 229.251 13.8634C229.294 13.8775 229.322 13.8917 229.365 13.8917C229.421 13.8917 229.478 13.8634 229.521 13.7784L230.2 12.1492C230.215 12.0925 230.229 12.0642 230.229 12.0217C230.229 11.9225 230.172 11.8517 230.059 11.7667C229.407 11.2142 228.331 10.8742 227.438 10.8742C226.347 10.8742 225.37 11.2709 224.647 12.0359C223.769 12.9567 223.471 14.1892 223.471 15.875C223.471 19.0767 224.775 21.0742 227.523 21.0742C228.401 21.0742 230.257 20.5925 230.257 20.0259C230.257 19.9834 230.257 19.9409 230.229 19.8842Z" fill="#EDCB80"/>
<path d="M0 22.9166L254.167 31.25L246.25 60.4166L5 69.5833L0 22.9166Z" fill="url(#paint1_linear)"/>
<path d="M38.0023 48.7699H35.9857V39.3099C35.9857 39.1449 35.8757 39.0899 35.784 39.0899H32.7407C32.6673 39.0899 32.5023 39.1083 32.5023 39.3466V48.7699H30.4857V39.3099C30.4857 39.1633 30.4123 39.0899 30.2657 39.0899H27.259C27.039 39.0899 27.0023 39.2183 27.0023 39.3649V51.4466C27.0023 51.5566 27.0757 51.6666 27.259 51.6666H41.1557C41.4307 51.6666 41.4857 51.4833 41.4857 51.3366V39.3099C41.4857 39.1633 41.4123 39.0899 41.2657 39.0899H38.2407C38.1673 39.0899 38.0023 39.1083 38.0023 39.3466V48.7699Z" fill="#251510"/>
<path d="M48.2403 38.7783C47.1037 38.7783 45.747 39.0349 44.6837 40.1899C43.272 41.7116 43.162 44.0949 43.162 45.3783C43.162 46.6616 43.272 49.0449 44.6837 50.5666C45.747 51.7216 47.1037 51.9783 48.2403 51.9783C49.377 51.9783 50.7337 51.7216 51.797 50.5666C53.2087 49.0449 53.3187 46.6616 53.3187 45.3783C53.3187 44.0949 53.2087 41.7116 51.797 40.1899C50.7337 39.0349 49.377 38.7783 48.2403 38.7783ZM48.2403 41.4183C48.5153 41.4183 48.7353 41.5466 48.9187 41.7299C49.1387 41.9499 49.7253 42.7016 49.7253 45.3783C49.7253 46.6066 49.597 49.3383 48.2403 49.3383C47.9653 49.3383 47.7637 49.2466 47.562 49.0266C47.2503 48.6783 46.7553 47.8349 46.7553 45.3783C46.7553 43.9666 46.9387 41.4183 48.2403 41.4183Z" fill="#251510"/>
<path d="M58.5424 46.5149H59.1657C59.8807 46.5149 60.3024 46.8999 60.4124 47.5966L60.7057 49.4849C61.0541 51.7583 62.979 51.9783 64.2074 51.9783C64.5374 51.9783 64.5741 51.8499 64.6291 51.7033L65.2891 49.6316C65.3074 49.5949 65.3074 49.5766 65.3074 49.5399C65.3074 49.3749 65.1424 49.3199 65.0324 49.2833L64.6657 49.1916C64.2991 49.0816 63.9324 49.0266 63.7491 48.1099L63.5474 47.0649C63.3824 46.1849 62.8507 45.4333 61.8607 45.1216V45.0666C62.7957 44.7916 63.1807 44.0399 63.309 43.4716L63.5107 42.5549C63.639 41.8583 63.9141 41.5466 64.354 41.4366L64.8307 41.3083C64.8857 41.2899 65.0324 41.2349 65.0324 41.0699C65.0324 41.0333 65.0324 40.9966 65.014 40.9599L64.4457 39.0166C64.3907 38.8516 64.2624 38.7783 63.9691 38.7783C62.6674 38.7783 60.9991 39.5116 60.6507 41.3999L60.4491 42.4816C60.3024 43.3799 59.9357 43.8566 59.1291 43.8566H58.5424V39.3099C58.5424 39.1633 58.4691 39.0899 58.3224 39.0899H55.2791C55.0774 39.0899 54.9857 39.1449 54.9857 39.3649V51.3549C54.9857 51.5383 55.0041 51.6666 55.2791 51.6666H58.3407C58.4324 51.6666 58.5424 51.6116 58.5424 51.4466V46.5149Z" fill="#251510"/>
<path d="M71.0496 38.7783C69.9129 38.7783 68.5563 39.0349 67.4929 40.1899C66.0812 41.7116 65.9712 44.0949 65.9712 45.3783C65.9712 46.6616 66.0812 49.0449 67.4929 50.5666C68.5563 51.7216 69.9129 51.9783 71.0496 51.9783C72.1863 51.9783 73.5429 51.7216 74.6063 50.5666C76.0179 49.0449 76.1279 46.6616 76.1279 45.3783C76.1279 44.0949 76.0179 41.7116 74.6063 40.1899C73.5429 39.0349 72.1863 38.7783 71.0496 38.7783ZM71.0496 41.4183C71.3246 41.4183 71.5446 41.5466 71.7279 41.7299C71.9479 41.9499 72.5346 42.7016 72.5346 45.3783C72.5346 46.6066 72.4062 49.3383 71.0496 49.3383C70.7746 49.3383 70.5729 49.2466 70.3713 49.0266C70.0596 48.6783 69.5646 47.8349 69.5646 45.3783C69.5646 43.9666 69.7479 41.4183 71.0496 41.4183Z" fill="#251510"/>
<path d="M82.0198 41.9866H83.5965V51.3549C83.5965 51.5933 83.6515 51.6666 83.9265 51.6666H86.7681C87.0431 51.6666 87.0431 51.5566 87.0431 51.3366V39.4566C87.0431 39.2183 86.9148 39.0899 86.6765 39.0899H79.2331C78.9765 39.0899 78.8481 39.2549 78.8481 39.4566V41.6383C78.8481 43.9666 78.9765 47.7249 78.0415 48.6599C77.6748 49.0449 77.2165 49.1366 76.7765 49.2283L76.4465 49.3016C76.3365 49.3383 76.2631 49.4483 76.2631 49.5583C76.2631 49.5766 76.2815 49.5949 76.2815 49.6133L76.9781 51.8133C77.0148 51.9049 77.0881 51.9783 77.3265 51.9783C77.9498 51.9783 79.5631 51.6483 80.4981 50.7133C81.5798 49.6133 81.7998 47.9266 81.8915 46.7899C82.0015 45.5799 82.0198 44.1683 82.0198 43.0316V41.9866Z" fill="#251510"/>
<path d="M99.6539 51.2266L95.8039 39.4016C95.6939 39.1083 95.6755 39.0899 95.3822 39.0899H92.6505C92.3389 39.0899 92.3205 39.1266 92.2472 39.4016L88.4155 51.2266C88.3789 51.3183 88.3422 51.4099 88.3422 51.4833C88.3422 51.5933 88.4339 51.6666 88.7272 51.6666H91.5872C91.8805 51.6666 91.8805 51.6483 91.9722 51.3549L92.7239 48.7333H95.1255L95.8222 51.3549C95.8955 51.6483 95.9139 51.6666 96.2255 51.6666H99.3239C99.5989 51.6666 99.6905 51.6116 99.6905 51.4466C99.6905 51.3916 99.6722 51.3183 99.6539 51.2266ZM94.6122 46.2583H93.1272L93.6039 44.1133C93.7139 43.5816 93.8422 42.6099 93.9155 42.0233C93.9889 42.5733 94.1539 43.5999 94.2455 44.1133L94.6122 46.2583Z" fill="#251510"/>
<path d="M108.609 51.6666V54.3799C108.609 54.5999 108.701 54.6549 108.884 54.6549H111.433C111.579 54.6549 111.653 54.5816 111.653 54.4349V49.1549C111.653 48.9166 111.524 48.8249 111.341 48.8249H110.424V39.3099C110.424 39.1083 110.296 39.0899 110.149 39.0899H102.596C102.394 39.0899 102.303 39.1449 102.303 39.3649V41.8766C102.303 45.5249 101.936 47.1016 101.001 48.8249H100.194C100.048 48.8249 99.8828 48.8799 99.8828 49.1549V54.3799C99.8828 54.5999 99.9744 54.6549 100.176 54.6549H102.651C102.834 54.6549 102.926 54.6183 102.926 54.3983V51.6666H108.609ZM107.014 48.8249H104.301C104.759 47.9266 104.924 47.2666 105.108 46.4416C105.273 45.6533 105.438 44.7366 105.438 43.7283V41.9316H107.014V48.8249Z" fill="#251510"/>
<path d="M122.24 51.2816V39.4566C122.24 39.1449 122.203 39.0899 121.855 39.0899H119.05C118.701 39.0899 118.683 39.1449 118.683 39.4566V43.7833H116.3V39.4566C116.3 39.1449 116.226 39.0899 115.915 39.0899H113.11C112.761 39.0899 112.743 39.1449 112.743 39.4566V51.2816C112.743 51.6299 112.761 51.6666 113.11 51.6666H115.915C116.226 51.6666 116.3 51.6299 116.3 51.2816V46.6799H118.683V51.2816C118.683 51.6299 118.701 51.6666 119.05 51.6666H121.855C122.203 51.6666 122.24 51.6299 122.24 51.2816Z" fill="#251510"/>
<path d="M128.986 38.7783C127.849 38.7783 126.492 39.0349 125.429 40.1899C124.017 41.7116 123.907 44.0949 123.907 45.3783C123.907 46.6616 124.017 49.0449 125.429 50.5666C126.492 51.7216 127.849 51.9783 128.986 51.9783C130.122 51.9783 131.479 51.7216 132.542 50.5666C133.954 49.0449 134.064 46.6616 134.064 45.3783C134.064 44.0949 133.954 41.7116 132.542 40.1899C131.479 39.0349 130.122 38.7783 128.986 38.7783ZM128.986 41.4183C129.261 41.4183 129.481 41.5466 129.664 41.7299C129.884 41.9499 130.471 42.7016 130.471 45.3783C130.471 46.6066 130.342 49.3383 128.986 49.3383C128.711 49.3383 128.509 49.2466 128.307 49.0266C127.996 48.6783 127.501 47.8349 127.501 45.3783C127.501 43.9666 127.684 41.4183 128.986 41.4183Z" fill="#251510"/>
<path d="M144.164 50.4383L143.266 48.3483C143.211 48.2383 143.156 48.1833 143.101 48.1833C142.936 48.1833 142.056 49.0633 140.901 49.0633C139.893 49.0633 139.013 48.1466 139.013 44.8833C139.013 42.4083 139.801 41.6933 140.644 41.6933C141.506 41.6933 142.313 42.3716 142.899 42.6466C142.954 42.6649 142.991 42.6833 143.046 42.6833C143.119 42.6833 143.193 42.6466 143.248 42.5366L144.128 40.4283C144.146 40.3549 144.164 40.3183 144.164 40.2633C144.164 40.1349 144.091 40.0433 143.944 39.9333C143.101 39.2183 141.708 38.7783 140.553 38.7783C139.141 38.7783 137.876 39.2916 136.941 40.2816C135.804 41.4733 135.419 43.0683 135.419 45.2499C135.419 49.3933 137.106 51.9783 140.663 51.9783C141.799 51.9783 144.201 51.3549 144.201 50.6216C144.201 50.5666 144.201 50.5116 144.164 50.4383Z" fill="#251510"/>
<path d="M153.871 39.5299C153.89 39.4383 153.89 39.3649 153.89 39.3099C153.89 39.1449 153.816 39.0899 153.541 39.0899H144.925C144.576 39.0899 144.54 39.1449 144.54 39.4566V41.7483C144.54 42.0966 144.576 42.1333 144.925 42.1333H147.29V51.2816C147.29 51.6299 147.326 51.6666 147.675 51.6666H150.48C150.828 51.6666 150.846 51.6299 150.846 51.2816V42.1333H153.065C153.34 42.1333 153.395 42.0783 153.45 41.8216L153.871 39.5299Z" fill="#251510"/>
<path d="M154.709 51.2999C154.709 51.5383 154.837 51.6666 155.076 51.6666H159.091C160.777 51.6666 163.747 51.5383 163.747 47.5966C163.747 46.9366 163.656 45.6899 162.757 44.8099C161.786 43.8749 160.301 43.8016 159.531 43.8016H158.156V39.3466C158.156 39.1083 157.991 39.0899 157.917 39.0899H155.039C154.874 39.0899 154.709 39.1266 154.709 39.3649V51.2999ZM158.156 46.2216H158.962C160.209 46.2216 160.411 46.9916 160.411 47.6699C160.411 48.6966 159.696 49.0083 158.724 49.0083H158.156V46.2216Z" fill="#251510"/>
<path d="M173.016 41.9499H176.847C176.994 41.9499 177.214 41.9133 177.269 41.6566L177.672 39.4749C177.672 39.4199 177.709 39.3466 177.709 39.2733C177.709 39.1816 177.654 39.0899 177.434 39.0899H169.936C169.771 39.0899 169.569 39.1266 169.569 39.4566V51.2999C169.569 51.4649 169.606 51.6666 169.936 51.6666H173.951C175.601 51.6666 178.607 51.3733 178.607 47.6699C178.607 46.8449 178.442 45.6899 177.562 44.8649C176.609 43.9849 175.234 43.8933 174.391 43.8933H173.016V41.9499ZM173.016 46.3133H173.841C174.574 46.3133 175.271 46.6433 175.271 47.6516C175.271 48.8616 174.372 49.0083 173.584 49.0083H173.016V46.3133Z" fill="#251510"/>
<path d="M193.735 39.3649C193.735 39.1999 193.625 39.0899 193.497 39.0899H190.398C190.288 39.0899 190.178 39.1816 190.178 39.3099V51.4283C190.178 51.5749 190.233 51.6666 190.398 51.6666H193.497C193.717 51.6666 193.735 51.5016 193.735 51.3549V39.3649ZM180.15 51.2999C180.15 51.5383 180.223 51.6666 180.517 51.6666H184.422C186.108 51.6666 189.078 51.5749 189.078 47.5233C189.078 46.7533 188.932 45.5983 188.033 44.7733C187.08 43.8933 185.705 43.8016 184.862 43.8016H183.597V39.3466C183.597 39.1083 183.432 39.0899 183.358 39.0899H180.48C180.315 39.0899 180.15 39.1266 180.15 39.3649V51.2999ZM183.597 46.2216H184.092C185.21 46.2216 185.852 46.5516 185.852 47.6333C185.852 48.7149 185.137 49.0083 184.165 49.0083H183.597V46.2216Z" fill="#251510"/>
<path d="M204.27 39.5299C204.288 39.4383 204.288 39.3649 204.288 39.3099C204.288 39.1449 204.215 39.0899 203.94 39.0899H195.323C194.975 39.0899 194.938 39.1449 194.938 39.4566V41.7483C194.938 42.0966 194.975 42.1333 195.323 42.1333H197.688V51.2816C197.688 51.6299 197.725 51.6666 198.073 51.6666H200.878C201.227 51.6666 201.245 51.6299 201.245 51.2816V42.1333H203.463C203.738 42.1333 203.793 42.0783 203.848 41.8216L204.27 39.5299Z" fill="#251510"/>
<path d="M215.154 39.3466C215.154 39.1266 215.026 39.0899 214.861 39.0899H211.579C211.341 39.0899 211.249 39.2183 211.194 39.3466L209.838 42.7749C209.269 44.2049 208.994 44.7183 208.389 46.3316H208.279C208.298 46.1849 208.444 44.0033 208.444 42.9216V39.3099C208.444 39.1633 208.371 39.0899 208.224 39.0899H205.401C205.199 39.0899 205.108 39.1449 205.108 39.3649V51.4466C205.108 51.5933 205.181 51.6666 205.328 51.6666H208.481C208.701 51.6666 208.793 51.4833 208.848 51.3733L210.461 47.5049C211.396 45.2499 211.689 44.4066 211.891 43.7466H211.983C211.928 44.3699 211.818 45.9099 211.818 46.8083V51.3916C211.818 51.6116 211.909 51.6666 212.111 51.6666H214.879C215.026 51.6666 215.154 51.6483 215.154 51.4466V39.3466Z" fill="#251510"/>
<path d="M221.612 39.0899C220.127 39.0899 217.194 39.4016 217.194 42.6283C217.194 43.6549 217.616 45.0483 219.339 45.5249V45.5616C218.404 45.9283 218.001 46.7899 217.854 47.4133L217.616 48.3483C217.506 48.7516 217.451 49.1183 216.644 49.3199L216.406 49.3749C216.241 49.4116 216.131 49.5399 216.131 49.6866C216.131 49.7233 216.131 49.7783 216.149 49.8149L216.754 51.7033C216.809 51.8866 216.846 51.9783 217.267 51.9783C218.037 51.9783 219.284 51.7766 219.962 51.0433C220.476 50.5116 220.604 49.8883 220.714 49.2833L220.971 47.9633C221.099 47.2666 221.429 46.8449 222.272 46.8449H222.767V51.2816C222.767 51.6299 222.841 51.6666 223.006 51.6666H225.957C226.287 51.6666 226.324 51.5933 226.324 51.4466V39.4566C226.324 39.2733 226.306 39.0899 225.957 39.0899H221.612ZM222.767 44.2783H221.851C221.392 44.2783 220.567 44.1683 220.567 42.9583C220.567 41.7116 221.392 41.6566 221.887 41.6566H222.767V44.2783Z" fill="#251510"/>
<defs>
<linearGradient id="paint0_linear" x1="183.75" y1="36.25" x2="183.75" y2="4.16667" gradientUnits="userSpaceOnUse">
<stop stop-color="#652E1C"/>
<stop offset="1" stop-color="#873D25"/>
</linearGradient>
<linearGradient id="paint1_linear" x1="39.1667" y1="26.6666" x2="139.167" y2="57.5" gradientUnits="userSpaceOnUse">
<stop stop-color="#EFB748"/>
<stop offset="0.223958" stop-color="#F8DFA0"/>
<stop offset="0.421875" stop-color="#EFB748"/>
<stop offset="0.661458" stop-color="#F8DF9F"/>
<stop offset="1" stop-color="#EFB748"/>
</linearGradient>
</defs>
</svg>
