<svg width="380" height="193" viewBox="0 0 380 193" fill="none" xmlns="http://www.w3.org/2000/svg">
<path d="M374.927 154.092C371.09 150.027 365.53 150.027 360.424 150.027H350.116C348.816 150.027 348.425 150.32 348.425 151.555V189.828C348.425 191.129 348.718 191.422 350.116 191.422H361.888C364.327 191.422 366.863 191.357 369.302 190.739C376.651 188.82 380 182.024 380 170.35C379.967 162.871 378.374 157.766 374.927 154.092ZM367.448 181.601C366.148 183.13 364.847 183.585 360.034 183.585H358.213V157.831H360.034C367.513 157.831 369.822 160.66 369.822 171.358C369.79 176.919 368.977 179.748 367.448 181.601ZM296.592 149.051C283.13 149.051 279.846 160.14 279.846 170.155C279.846 185.146 285.276 192.462 296.365 192.462C307.583 192.462 313.241 184.886 313.241 170.155C313.241 156.238 307.583 149.051 296.592 149.051ZM296.592 184.723C292.625 184.723 290.024 180.919 290.024 170.903C290.024 160.888 292.69 156.758 296.592 156.758C300.56 156.758 302.998 160.498 302.998 170.676C302.998 180.821 300.397 184.723 296.592 184.723ZM343.71 182.674H328.362V151.588C328.362 150.352 327.972 150.059 326.671 150.059H320.33C318.965 150.059 318.639 150.352 318.639 151.588V189.861C318.639 191.162 318.932 191.454 320.33 191.454H342.182C343.32 191.454 343.645 191.292 343.873 190.219L345.109 184.333C345.174 184.04 345.174 183.813 345.174 183.552C345.141 182.805 344.686 182.674 343.71 182.674ZM212.925 150.027H207.95C206.584 150.027 206.259 150.32 206.259 151.555V176.171C205.121 173.277 204.048 170.838 202.812 168.757L192.276 151.197C191.658 150.124 191.431 150.059 190.13 150.059H184.927C183.562 150.059 183.236 150.352 183.236 151.588V189.861C183.236 191.162 183.529 191.454 184.927 191.454H189.902C191.203 191.454 191.658 191.162 191.658 189.861V169.537C191.658 167.716 191.593 166.025 191.496 164.205C192.341 166.253 193.024 167.716 194.943 170.936L206.389 190.186C207.072 191.324 207.299 191.487 208.6 191.487H212.892C214.258 191.487 214.486 191.194 214.486 189.893V151.555C214.551 150.254 214.323 150.027 212.925 150.027ZM117.258 182.674H101.91V151.588C101.91 150.352 101.52 150.059 100.219 150.059H93.8782C92.5124 150.059 92.1872 150.352 92.1872 151.588V189.861C92.1872 191.162 92.4799 191.454 93.8782 191.454H115.73C116.868 191.454 117.193 191.292 117.421 190.219L118.657 184.333C118.722 184.04 118.722 183.813 118.722 183.552C118.722 182.805 118.266 182.674 117.258 182.674ZM177.448 150.027H155.206C153.84 150.027 153.515 150.32 153.515 151.555V189.828C153.515 191.129 153.808 191.422 155.206 191.422H176.538C177.903 191.422 178.229 191.129 178.229 189.828V185.081C178.229 183.845 177.936 183.552 176.538 183.552H163.238V173.765H173.774C175.074 173.765 175.465 173.374 175.465 172.171V167.456C175.465 166.156 175.074 165.928 173.774 165.928H163.238V157.896H175.595C176.603 157.896 177.058 157.668 177.286 156.66L178.586 151.555C178.651 151.263 178.749 151.035 178.749 150.807C178.749 150.254 178.359 150.027 177.448 150.027ZM17.3319 157.278C19.8682 157.278 21.6242 158.286 23.6728 159.652C23.9004 159.815 24.128 159.88 24.3556 159.88C24.7459 159.88 25.0385 159.652 25.3637 159.262L28.3553 154.514C28.5179 154.287 28.5829 154.059 28.5829 153.831C28.5829 151.165 20.2584 149.019 16.8766 149.019C6.73113 149.019 0 156.823 0 170.253C0 184.626 6.04826 192.397 17.2668 192.397C21.6892 192.397 28.5829 190.706 28.5829 187.585C28.5829 187.292 28.5179 186.967 28.3553 186.739L25.5263 182.772C25.1361 182.317 24.9084 182.089 24.6158 182.089C24.3882 182.089 24.1605 182.154 23.8679 182.382C21.8843 183.748 20.1284 184.138 18.3724 184.138C13.1696 184.138 10.2105 180.073 10.2105 168.92C10.178 160.498 13.3647 157.278 17.3319 157.278ZM72.8068 140.337C72.5792 139.556 72.4166 139.101 71.6687 139.101H62.8889C61.8809 139.101 61.8158 139.556 61.5882 140.239L46.37 189.893C46.2074 190.349 45.9148 191.422 47.5081 191.422H55.67C56.6781 191.422 56.7431 191.031 57.0358 189.828L60.1575 177.439H73.2945L76.6439 189.828C77.0991 191.357 77.3267 191.422 78.2372 191.422H86.7243C87.1145 191.422 87.96 191.357 87.96 190.511C87.96 190.121 87.7974 189.893 87.7323 189.601L72.8068 140.337ZM61.3606 170.578L64.7099 157.441C66.0756 152.173 66.3033 149.344 66.4008 147.263H66.6284C67.2463 152.531 67.7666 155.132 68.3194 157.441L71.441 170.578H61.3606ZM273.31 164.107H259.783C259.1 164.107 258.254 164.27 258.254 165.635V170.838C258.254 172.204 259.1 172.366 259.783 172.366H265.603V183.292C263.457 184.3 261.701 184.528 260.335 184.528C257.799 184.528 255.588 183.78 254.157 182.479C250.353 179.033 249.962 170.09 249.962 166.286C249.962 162.221 250.483 156.043 251.556 152.823C253.019 148.629 255.62 146.092 260.27 146.092C262.644 146.092 264.855 146.775 267.132 148.011C269.115 149.084 269.668 149.474 270.123 149.474C270.741 149.474 270.871 149.019 271.131 148.629L273.668 143.588C273.96 142.971 274.285 142.45 272.302 141.215C271.001 140.467 266.579 137.865 259.62 137.865C253.214 137.865 248.694 140.076 245.475 143.523C241.8 147.49 239.134 154.222 239.134 166.448C239.134 174.317 240.5 181.049 244.337 186.089C247.784 190.609 252.596 192.82 259.685 192.82C266.026 192.82 270.221 190.999 272.367 189.828C274.35 188.755 274.903 188.235 274.903 187.162V165.7C274.838 164.237 273.993 164.107 273.31 164.107ZM134.362 150.027H123.664C122.298 150.027 121.973 150.254 121.973 151.555V189.828C121.973 191.129 122.266 191.422 123.664 191.422H130.005C131.306 191.422 131.696 191.129 131.696 189.828V175.456H134.753C143.63 175.456 150.036 169.798 150.036 161.538C150.003 154.254 146.589 150.027 134.362 150.027ZM133.419 167.391H131.664V157.538H134.037C138.622 157.538 140.768 158.156 140.768 162.058C140.768 166.221 138.72 167.391 133.419 167.391ZM217.477 57.5795V73.6106C217.477 74.0984 217.51 74.1309 217.965 74.1309H221.77C222.192 74.1309 222.29 74.0659 222.29 73.6106V67.3673H225.509V73.6106C225.509 74.0984 225.542 74.1309 225.997 74.1309H229.801C230.289 74.1309 230.322 74.0659 230.322 73.6106V57.5795C230.322 57.1568 230.257 57.0917 229.801 57.0917H225.997C225.509 57.0917 225.509 57.1568 225.509 57.5795V63.4326H222.29V57.5795C222.29 57.1568 222.192 57.0917 221.77 57.0917H217.965C217.51 57.0917 217.477 57.1568 217.477 57.5795ZM198.747 60.9613C199.072 60.9613 199.235 60.8963 199.3 60.5711L199.723 57.677C199.755 57.547 199.788 57.4169 199.788 57.3519C199.788 57.1568 199.69 57.0917 199.3 57.0917H189.61C189.122 57.0917 189.09 57.1568 189.09 57.5795V73.6106C189.09 74.0984 189.155 74.1309 189.61 74.1309H199.105C199.593 74.1309 199.593 74.0659 199.593 73.6106V70.7166C199.593 70.2938 199.56 70.2288 199.105 70.2288H193.902V67.3348H197.902C198.324 67.3348 198.422 67.2697 198.422 66.847V63.9854C198.422 63.4977 198.324 63.4652 197.902 63.4652H193.902V60.9938H198.747V60.9613ZM248.239 65.4487C248.239 71.0743 250.515 74.5862 255.36 74.5862C256.889 74.5862 260.173 73.7407 260.173 72.7327C260.173 72.6676 260.173 72.5701 260.108 72.4725L258.905 69.6435C258.84 69.4809 258.742 69.4159 258.677 69.4159C258.449 69.4159 257.246 70.619 255.685 70.619C254.32 70.619 253.117 69.3834 253.117 64.961C253.117 61.6117 254.19 60.6361 255.328 60.6361C256.498 60.6361 257.604 61.5466 258.384 61.9368C258.449 61.9694 258.514 62.0019 258.579 62.0019C258.677 62.0019 258.775 61.9368 258.84 61.8068L260.043 58.9452C260.075 58.8477 260.108 58.7826 260.108 58.7176C260.108 58.555 260.01 58.4249 259.815 58.2624C258.677 57.2868 256.791 56.7015 255.23 56.7015C253.312 56.7015 251.588 57.3844 250.32 58.7501C248.759 60.311 248.239 62.4896 248.239 65.4487ZM239.524 56.669C237.996 56.669 236.142 57.0267 234.712 58.5875C232.793 60.6361 232.663 63.8879 232.663 65.6113C232.663 67.3673 232.826 70.5865 234.712 72.6351C236.142 74.196 237.996 74.5536 239.524 74.5536C241.053 74.5536 242.906 74.196 244.337 72.6351C246.255 70.5865 246.385 67.3347 246.385 65.6113C246.385 63.8554 246.223 60.6361 244.337 58.5875C242.906 56.9942 241.053 56.669 239.524 56.669ZM239.524 70.9767C239.167 70.9767 238.874 70.8466 238.614 70.554C238.191 70.0662 237.508 68.9281 237.508 65.6113C237.508 63.6928 237.768 60.2459 239.524 60.2459C239.882 60.2459 240.207 60.4085 240.435 60.6687C240.727 60.9613 241.54 62.0019 241.54 65.6113C241.54 67.2697 241.345 70.9767 239.524 70.9767ZM264.855 74.1309H268.66C269.148 74.1309 269.148 74.0659 269.148 73.6106V61.1889H272.172C272.53 61.1889 272.627 61.1239 272.692 60.7662L273.277 57.6445C273.31 57.5145 273.31 57.4169 273.31 57.3519C273.31 57.1242 273.212 57.0592 272.822 57.0592H261.116C260.628 57.0592 260.596 57.1242 260.596 57.547V60.6687C260.596 61.1564 260.661 61.1889 261.116 61.1889H264.335V73.6106C264.335 74.0984 264.368 74.1309 264.855 74.1309ZM279.066 57.4169C279.066 57.0917 278.838 57.0592 278.74 57.0592H274.838C274.611 57.0592 274.383 57.1242 274.383 57.4169V73.6106C274.383 73.9358 274.546 74.0984 274.871 74.0984H280.301C282.577 74.0984 286.61 73.9358 286.61 68.5704C286.61 67.6599 286.48 65.969 285.276 64.7984C283.943 63.5302 281.96 63.4326 280.887 63.4326H279.033V57.4169H279.066ZM280.171 66.7494C281.862 66.7494 282.122 67.79 282.122 68.7005C282.122 70.0987 281.147 70.5215 279.846 70.5215H279.066V66.7494H280.171ZM210.454 74.1309H214.258C214.746 74.1309 214.778 74.0659 214.778 73.6106V57.5795C214.778 57.1568 214.713 57.0917 214.258 57.0917H210.454C209.966 57.0917 209.966 57.1568 209.966 57.5795V63.4326H206.747V57.5795C206.747 57.1568 206.649 57.0917 206.226 57.0917H202.422C201.934 57.0917 201.934 57.1568 201.934 57.5795V73.6106C201.934 74.0984 201.966 74.1309 202.422 74.1309H206.226C206.649 74.1309 206.747 74.0659 206.747 73.6106V67.3673H209.966V73.6106C209.966 74.0984 209.998 74.1309 210.454 74.1309ZM131.403 65.4487C131.403 71.0743 133.68 74.5862 138.525 74.5862C140.053 74.5862 143.337 73.7407 143.337 72.7327C143.337 72.6676 143.337 72.5701 143.272 72.4725L142.069 69.6435C142.004 69.4809 141.907 69.4159 141.842 69.4159C141.614 69.4159 140.411 70.619 138.85 70.619C137.484 70.619 136.281 69.3834 136.281 64.961C136.281 61.6117 137.354 60.6361 138.492 60.6361C139.663 60.6361 140.768 61.5466 141.549 61.9368C141.614 61.9694 141.679 62.0019 141.744 62.0019C141.842 62.0019 141.939 61.9368 142.004 61.8068L143.207 58.9452C143.24 58.8477 143.272 58.7826 143.272 58.7176C143.272 58.555 143.175 58.4249 142.98 58.2624C141.842 57.2868 139.956 56.7015 138.395 56.7015C136.476 56.7015 134.753 57.3844 133.485 58.7501C131.924 60.311 131.403 62.4896 131.403 65.4487ZM149.581 57.0917H145.679C145.451 57.0917 145.223 57.1568 145.223 57.4494V73.6432C145.223 73.9683 145.321 74.1309 145.711 74.1309H151.011C153.288 74.1309 157.32 74.0008 157.32 68.5054C157.32 67.4648 157.125 65.904 155.889 64.7659C154.588 63.5627 152.735 63.4326 151.597 63.4326H149.906V57.3844C149.906 57.0917 149.711 57.0917 149.581 57.0917ZM150.589 66.7494C152.117 66.7494 152.963 67.2047 152.963 68.668C152.963 70.1313 151.987 70.5215 150.686 70.5215H149.906V66.7494H150.589ZM100.934 57.5795V73.6106C100.934 74.0984 100.967 74.1309 101.422 74.1309H105.227C105.649 74.1309 105.747 74.0659 105.747 73.6106V67.3673H108.966V73.6106C108.966 74.0984 108.999 74.1309 109.454 74.1309H113.259C113.746 74.1309 113.779 74.0659 113.779 73.6106V57.5795C113.779 57.1568 113.714 57.0917 113.259 57.0917H109.454C108.966 57.0917 108.966 57.1568 108.966 57.5795V63.4326H105.747V57.5795C105.747 57.1568 105.649 57.0917 105.227 57.0917H101.422C100.967 57.0917 100.934 57.1568 100.934 57.5795ZM159.141 57.0917C158.978 57.0917 158.848 57.2218 158.848 57.3844V73.8057C158.848 74.0008 158.913 74.1309 159.141 74.1309H163.336C163.628 74.1309 163.661 73.9033 163.661 73.7082V57.4494C163.661 57.2218 163.498 57.0917 163.336 57.0917H159.141ZM125.128 57.0917H121.421C120.998 57.0917 120.965 57.1568 120.868 57.5145L115.665 73.5456C115.6 73.6757 115.567 73.8057 115.567 73.9033C115.567 74.0659 115.697 74.1634 116.088 74.1634H119.99C120.38 74.1634 120.38 74.1309 120.51 73.7407L121.518 70.1963H124.77L125.713 73.7407C125.81 74.1309 125.843 74.1634 126.266 74.1634H130.46C130.818 74.1634 130.948 74.0984 130.948 73.8708C130.948 73.8057 130.916 73.7082 130.883 73.5781L125.648 57.547C125.55 57.0917 125.518 57.0917 125.128 57.0917ZM122.071 66.8145L122.721 63.9204C122.884 63.205 123.046 61.8718 123.144 61.0914C123.241 61.8393 123.469 63.2375 123.599 63.9204L124.087 66.8145H122.071ZM183.822 78.1956H187.334C187.431 78.1956 187.594 78.1631 187.594 77.8379V70.7166C187.594 70.489 187.529 70.2288 187.106 70.2288H186V57.3844C186 57.1893 185.903 57.0917 185.708 57.0917H181.61C181.513 57.0917 181.285 57.1242 181.285 57.4494V70.2288H178.554V57.3844C178.554 57.1568 178.391 57.0917 178.294 57.0917H174.164C174.066 57.0917 173.839 57.1242 173.839 57.4494V70.2288H171.107V57.3844C171.107 57.1893 171.01 57.0917 170.815 57.0917H166.75C166.457 57.0917 166.392 57.2543 166.392 57.4494V73.8383C166.392 74.0008 166.49 74.1309 166.75 74.1309H183.529V77.8379C183.497 78.1631 183.724 78.1956 183.822 78.1956ZM268.595 6.88464C272.204 6.88464 274.188 5.42135 275.294 3.95806C276.106 2.85246 276.302 1.87694 276.302 1.12903C276.302 0.608752 276.009 0.413647 275.781 0.413647L272.497 0.0559536C272.237 0.0559536 272.042 -0.106634 271.782 0.120989C271.587 0.283576 271.521 0.673787 271.391 1.09651C271.001 2.29966 270.123 3.1126 268.595 3.1126C267.067 3.1126 266.221 2.29966 265.798 1.09651C265.636 0.706304 265.603 0.283576 265.408 0.120989C265.148 -0.0741166 264.953 0.0559536 264.693 0.0559536L261.409 0.413647C261.213 0.413647 260.888 0.608752 260.888 1.12903C260.888 1.87694 261.083 2.85246 261.896 3.95806C263.034 5.38883 265.018 6.88464 268.595 6.88464ZM52.3858 43.2067H57.2634C58.1739 43.2067 58.2714 42.6539 58.2714 42.1987V14.0385H67.4089V42.1987C67.4089 42.6539 67.5064 43.2067 68.4169 43.2067H73.2945C73.7498 43.2067 74.3026 43.1092 74.3026 42.1987V9.58359C74.3026 9.12835 74.205 8.57555 73.2945 8.57555H52.3858C51.9305 8.57555 51.3777 8.6731 51.3777 9.58359V42.1662C51.3777 42.6539 51.4753 43.2067 52.3858 43.2067ZM285.406 14.6563H292.17V42.1987C292.17 42.6539 292.268 43.2067 293.178 43.2067H298.056C298.511 43.2067 299.064 43.1092 299.064 42.1987V14.6563H305.47C305.86 14.6563 306.348 14.5588 306.543 13.8434L307.648 9.64863C307.746 9.29094 308.006 8.57555 306.998 8.57555H285.439C284.691 8.57555 284.691 9.12835 284.691 9.32345V13.8759C284.626 14.1035 284.626 14.6563 285.406 14.6563ZM257.702 43.2067H262.579C263.327 43.2067 263.49 42.9141 263.75 42.3613L270.741 27.3382C271.489 25.7123 272.302 24.1189 273.57 20.5745H273.765C273.668 22.3305 273.57 24.7693 273.57 26.135V42.1987C273.57 42.6539 273.668 43.2067 274.578 43.2067H279.456C280.366 43.2067 280.464 42.6539 280.464 42.1987V9.58359C280.464 9.12835 280.366 8.57555 279.456 8.57555H274.643C273.733 8.57555 273.635 8.96576 273.31 9.64863L266.937 23.4035C266.189 25.0619 264.4 29.2242 263.587 31.2403H263.392C263.49 25.4847 263.587 26.5252 263.587 24.1515V9.58359C263.587 9.12835 263.49 8.57555 262.579 8.57555H257.702C257.246 8.57555 256.693 8.6731 256.693 9.58359V42.1662C256.693 42.6539 256.791 43.2067 257.702 43.2067ZM197.414 28.2487C199.072 29.712 201.641 30.4599 204.47 30.4599C206.356 30.4599 208.535 30.1672 211.169 29.0941V42.1987C211.169 42.6539 211.266 43.2067 212.177 43.2067H217.055C217.965 43.2067 218.063 42.6539 218.063 42.1987V9.58359C218.063 9.12835 217.965 8.57555 217.055 8.57555H212.177C211.722 8.57555 211.169 8.6731 211.169 9.58359V23.7938C209.185 24.8018 207.527 24.9969 206.194 24.9969C205.088 24.9969 203.722 24.8018 202.779 23.8913C201.771 22.8833 201.771 21.6151 201.771 20.607V9.58359C201.771 9.12835 201.674 8.57555 200.763 8.57555H195.886C195.43 8.57555 194.878 8.6731 194.878 9.58359V21.8102C194.878 23.5987 195.138 26.2326 197.414 28.2487ZM312.136 43.2067H328.59C329.045 43.2067 329.598 43.1092 329.598 42.1987V38.7518C329.598 37.8413 329.045 37.7438 328.59 37.7438H318.022V27.891H326.541C326.996 27.891 327.549 27.7934 327.549 26.8829V23.4361C327.549 22.9808 327.452 22.428 326.541 22.428H318.022V14.0385H328.004C328.752 14.0385 328.915 13.5182 328.98 13.2906L329.988 9.48604C330.053 9.29094 330.086 9.0308 329.923 8.83569C329.76 8.64059 329.533 8.57555 329.305 8.57555H312.103C311.648 8.57555 311.095 8.6731 311.095 9.58359V42.1662C311.128 42.6539 311.225 43.2067 312.136 43.2067ZM141.809 43.2067H146.687C147.207 43.2067 147.695 43.1417 147.695 42.1987V27.956H149.873C153.028 27.956 153.418 29.842 153.743 31.3378L154.946 37.4186C155.239 39.0445 155.499 41.0606 157.092 42.4263C158.881 43.9546 161.807 44.0847 162.36 44.0847C163.238 44.0847 163.336 43.727 163.466 43.3368L164.799 39.4997C164.896 39.2071 164.962 38.6543 164.279 38.4917L162.945 38.199C161.417 37.8413 161.157 37.191 160.702 34.8172L159.889 30.5574C159.694 29.5819 159.011 26.3626 155.336 25.192V25.0294C158.068 24.0539 158.946 22.1354 159.303 20.1193L159.921 16.5423C160.311 14.006 160.994 13.6158 162.165 13.3231L163.433 13.0305C163.888 12.9329 164.084 12.4777 163.953 11.9574L162.88 8.38044C162.718 7.86016 162.328 7.76261 161.905 7.76261C160.897 7.76261 159.076 8.1203 157.58 9.0308C155.304 10.3965 154.849 12.3801 154.491 14.4287L153.743 18.721C153.19 21.8102 151.857 22.5256 149.418 22.5256H147.695V9.58359C147.695 8.60807 147.174 8.57555 146.687 8.57555H141.809C141.289 8.57555 140.801 8.64058 140.801 9.58359V42.1662C140.801 43.1417 141.321 43.2067 141.809 43.2067ZM224.371 43.2067H229.801C230.452 43.2067 230.517 42.9466 230.712 42.1337L232.793 33.9392H241.508L243.751 42.1337C244.044 43.1417 244.207 43.2067 244.825 43.2067H250.45C250.71 43.2067 251.263 43.1417 251.263 42.5889C251.263 42.3288 251.166 42.1987 251.1 41.9711L241.15 9.38849C240.988 8.86821 240.89 8.57555 240.402 8.57555H234.582C233.931 8.57555 233.866 8.86821 233.704 9.32345L223.623 42.1662C223.493 42.4913 223.298 43.2067 224.371 43.2067ZM235.785 20.7046C236.695 17.2252 236.858 15.3392 236.89 13.9735H237.053C237.443 17.4528 237.801 19.1763 238.158 20.7046L240.24 29.3868H233.541L235.785 20.7046ZM84.3505 43.2067H89.2281C90.1386 43.2067 90.2362 42.6539 90.2362 42.1987V29.3543H92.9351C100.154 29.3543 104.544 24.8994 104.544 18.2333C104.544 13.3231 102.365 11.0469 100.447 10.0063C98.1054 8.70562 94.9512 8.57555 92.675 8.57555H84.3505C83.8953 8.57555 83.3425 8.6731 83.3425 9.58359V42.1662C83.3425 42.6539 83.44 43.2067 84.3505 43.2067ZM90.2362 13.9084H92.4799C94.3984 13.9084 97.6502 13.9735 97.6502 18.6235C97.6502 23.5336 94.7561 23.9238 91.8295 23.9238H90.2687V13.9084H90.2362ZM167.14 43.2067H172.571C173.221 43.2067 173.286 42.9466 173.481 42.1337L175.562 33.9392H184.277L186.521 42.1337C186.813 43.1417 186.976 43.2067 187.594 43.2067H193.219C193.479 43.2067 194.032 43.1417 194.032 42.5889C194.032 42.3288 193.935 42.1987 193.87 41.9711L183.919 9.38849C183.757 8.86821 183.659 8.57555 183.171 8.57555H177.351C176.7 8.57555 176.635 8.86821 176.473 9.32345L166.392 42.1662C166.262 42.4913 166.067 43.2067 167.14 43.2067ZM178.554 20.7046C179.464 17.2252 179.627 15.3392 179.659 13.9735H179.822C180.212 17.4528 180.57 19.1763 180.928 20.7046L183.009 29.3868H176.31L178.554 20.7046ZM121.225 44.0522C133.615 44.0522 133.842 29.5494 133.842 25.9074C133.842 22.2329 133.582 7.69758 121.225 7.69758C108.836 7.69758 108.609 22.2004 108.609 25.9074C108.609 29.5494 108.836 44.0522 121.225 44.0522ZM121.225 13.193C126.103 13.193 126.656 21.0298 126.656 25.9399C126.656 30.0696 126.363 38.6218 121.225 38.6218C116.088 38.6218 115.795 30.0696 115.795 25.9399C115.795 21.0298 116.348 13.193 121.225 13.193ZM298.739 102.291C298.901 101.966 298.771 101.576 298.316 101.186C297.861 100.763 297.405 100.503 296.918 100.405C296.43 100.308 296.072 100.373 295.845 100.665C294.316 104.177 292.463 107.234 290.317 109.835C288.17 112.437 286.317 113.705 284.789 113.64C284.236 113.64 283.846 113.282 283.585 112.567C283.325 111.851 283.293 110.811 283.423 109.477C283.553 108.144 283.781 106.746 284.041 105.315C284.301 103.884 284.724 102.161 285.244 100.145C285.764 98.1289 286.219 96.438 286.61 95.0072C287 93.6089 287.488 91.9505 288.04 89.9995C288.626 88.0809 288.983 86.7802 289.146 86.1299C288.886 84.9593 287.488 84.2439 285.016 83.9837C282.545 83.7236 281.049 84.0488 280.561 84.9593C278.123 93.4463 276.497 99.0394 275.619 101.738C274.416 105.088 272.725 107.917 270.546 110.193C268.367 112.469 266.416 113.607 264.725 113.607C263.36 113.607 262.644 112.697 262.612 110.876C262.579 109.055 262.937 106.974 263.652 104.6C264.27 101.998 265.181 98.4215 266.384 93.804C267.587 89.2191 268.27 86.6177 268.465 85.9998C268.465 84.8942 267.164 84.2114 264.53 83.9187C261.929 83.6586 260.368 84.0163 259.848 85.0893C259.685 85.6421 258.742 88.9264 257.051 94.9096C256.466 96.9582 255.946 98.8768 255.49 100.6C253.962 104.307 252.076 107.429 249.865 110.03C247.654 112.632 245.735 113.9 244.077 113.835C242.353 113.835 242.126 111.559 243.329 106.974C243.784 105.445 245.67 98.4215 249.019 85.9998C249.084 85.8372 249.084 85.6747 249.019 85.5121C248.759 84.5365 247.166 83.9837 244.304 83.9512C241.54 83.9512 240.077 84.4065 239.849 85.3495C239.784 85.447 239.329 87.268 238.484 90.7474C237.638 94.2593 236.923 96.9908 236.37 98.9743H225.054C225.282 98.1614 225.607 96.8932 226.029 95.2673C226.485 93.6089 226.875 92.0481 227.265 90.5198C227.655 88.9914 228.046 87.4956 228.436 86.0323C228.501 85.8698 228.501 85.7072 228.436 85.5446C228.176 84.5691 226.647 84.0163 223.883 83.9837C221.119 83.9187 219.623 84.4065 219.331 85.382C217.868 91.2026 216.534 96.4054 215.331 101.023C211.884 108.665 207.429 114.095 201.966 117.282C200.861 113.77 198.747 111.624 195.593 110.843C200.113 108.307 203.397 104.827 205.478 100.438C207.559 96.0152 207.885 92.1456 206.519 88.7313C205.153 85.3495 202.324 83.6911 198.097 83.7236C196.276 83.7236 194.585 84.0813 193.024 84.7967C191.463 85.5121 190.13 86.3575 189.024 87.333C187.919 88.3086 186.716 89.7719 185.415 91.7554C184.114 93.739 183.074 95.4949 182.326 96.9908C181.838 97.9338 181.253 99.1369 180.537 100.568C180.505 100.6 180.472 100.633 180.44 100.665C178.912 104.177 177.058 107.234 174.912 109.835C172.766 112.437 170.912 113.705 169.384 113.64C168.831 113.64 168.441 113.282 168.181 112.567C167.921 111.851 167.888 110.811 168.018 109.477C168.148 108.144 168.376 106.746 168.636 105.315C168.896 103.884 169.319 102.161 169.839 100.145C170.359 98.1289 170.815 96.438 171.205 95.0072C171.595 93.6089 172.083 91.9505 172.636 89.9995C173.221 88.0809 173.579 86.7802 173.741 86.1299C173.481 84.9593 172.083 84.2439 169.611 83.9837C167.14 83.7236 165.644 84.0488 165.157 84.9593C162.718 93.4463 161.092 99.0394 160.214 101.738C159.011 105.088 157.32 107.917 155.141 110.193C152.963 112.469 151.011 113.607 149.321 113.607C147.955 113.607 147.239 112.697 147.207 110.876C147.174 109.055 147.532 106.974 148.247 104.6C148.865 101.998 149.776 98.4215 150.979 93.804C152.182 89.2191 152.865 86.6177 153.06 85.9998C153.06 84.8942 151.759 84.2114 149.125 83.9187C146.524 83.6586 144.963 84.0163 144.443 85.0893C144.28 85.6421 143.337 88.9264 141.646 94.9096C141.029 97.0558 140.508 99.0394 140.021 100.828C138.135 105.12 136.086 108.404 133.875 110.648C131.631 112.924 129.452 114.03 127.339 113.9C125.615 113.835 124.38 112.274 123.567 109.152C122.754 106.031 122.331 102.356 122.298 98.1289C125.648 95.1047 129.42 92.4058 133.55 90.032C134.753 89.3166 134.85 88.0159 133.842 86.0974C132.834 84.2114 131.664 83.5285 130.428 84.0813C124.575 86.8778 119.112 91.853 113.974 98.9418C115.242 93.3813 117.128 87.1705 118.559 82.8456C118.787 82.1302 118.234 81.5449 116.933 81.0572C115.632 80.6019 114.267 80.3743 112.803 80.4393C111.34 80.5044 110.495 80.8295 110.267 81.4148C108.576 86.7152 107.34 92.731 106.105 97.9988C103.471 88.3736 100.154 83.5285 96.1869 83.5285C93.3904 83.5935 90.6264 85.4145 87.9274 88.9914C86.269 91.2026 83.6351 95.9827 79.9932 103.364C79.733 103.917 80.0582 104.437 81.0337 104.925C82.0092 105.413 82.6271 105.445 82.8872 105.023C84.383 102.161 85.4886 100.047 86.269 98.6491C87.0495 97.2834 87.96 95.7226 89.0656 93.9666C90.1711 92.2432 91.1467 91.04 91.9596 90.3572C92.7725 89.7068 93.5855 89.3817 94.3659 89.4467C95.6341 89.5117 97.0649 91.4303 98.6582 95.2348C96.9023 98.7142 94.496 102.356 91.4718 106.128C88.4477 109.933 85.7813 112.794 83.4725 114.713C82.9197 115.363 82.8872 116.144 83.3425 116.989C83.7977 117.834 84.5781 118.582 85.6187 119.168C86.6592 119.786 87.5047 119.883 88.09 119.493C90.3012 117.965 92.7075 115.461 95.3089 112.014C97.9103 108.567 100.154 105.023 102.04 101.381C102.658 103.364 103.081 105.348 103.373 107.331C103.211 108.047 102.853 109.543 102.3 111.819C101.747 114.095 101.325 115.851 101.065 117.054C100.804 118.03 101.325 118.712 102.69 119.038C104.024 119.363 105.454 119.395 106.95 119.07C108.446 118.778 109.226 118.29 109.356 117.639C110.169 113.347 110.885 110.16 111.503 108.144C112.218 106.811 113.649 104.827 115.795 102.194C116.185 113.477 119.112 119.265 124.64 119.558C128.152 119.721 131.501 118.16 134.688 114.875C135.793 113.705 136.866 112.437 137.907 111.038C137.809 113.119 138.167 114.908 138.98 116.371C140.118 118.387 142.199 119.428 145.288 119.46C151.304 119.623 156.474 116.144 160.832 108.957C160.181 111.559 160.279 113.9 161.189 115.981C162.1 118.062 163.661 119.135 165.872 119.135C171.302 119.2 176.603 114.485 181.871 105.023C181.936 104.99 182.033 104.925 182.098 104.827C187.496 93.9666 192.146 88.7963 196.048 89.2841C197.382 89.3817 198.227 90.1296 198.617 91.5278C199.398 93.9666 198.747 96.9582 196.731 100.535C194.26 104.893 191.008 107.591 186.976 108.632C186.163 108.957 185.578 109.608 185.252 110.616C184.927 111.591 184.927 112.534 185.252 113.38C185.578 114.225 186.163 114.648 186.976 114.648C189.122 114.55 190.813 114.875 192.049 115.688C193.284 116.501 194.097 118.03 194.487 120.371C192.114 121.151 190.065 121.899 188.374 122.68C186.651 123.46 184.862 124.403 182.911 125.574C180.993 126.744 179.464 128.078 178.359 129.638C177.253 131.167 176.603 132.89 176.375 134.776C176.05 137.638 176.765 139.784 178.521 141.182C180.277 142.58 182.488 143.231 185.122 143.133C190.13 143.036 194.422 140.857 197.967 136.662C201.511 132.435 203.202 127.525 203.04 121.899C206.421 119.623 209.511 116.534 212.34 112.664C211.917 114.29 211.527 115.786 211.136 117.119C211.071 117.347 211.071 117.542 211.136 117.704C211.462 118.875 213.12 119.395 216.079 119.265C218.778 119.2 220.209 118.745 220.371 117.867C220.632 116.696 221.737 112.307 223.688 104.632H235.102C234.484 107.104 234.126 109.185 233.931 110.876C233.769 112.567 233.834 114.127 234.191 115.558C234.517 116.989 235.232 118.03 236.338 118.647C237.443 119.265 238.971 119.558 240.955 119.525C245.28 119.33 249.377 116.501 253.312 111.006C253.182 113.119 253.539 114.94 254.385 116.436C255.523 118.452 257.604 119.493 260.693 119.525C266.709 119.688 271.879 116.209 276.237 109.022C275.586 111.624 275.684 113.965 276.594 116.046C277.505 118.127 279.066 119.2 281.277 119.2C287.162 119.363 293.016 113.705 298.739 102.291ZM192.276 133.215C190.813 135.361 189.09 136.727 187.106 137.28C185.838 137.605 184.895 137.345 184.309 136.5C183.692 135.654 183.724 134.516 184.407 133.085C185.61 130.549 189.122 128.208 194.91 126.061C194.618 128.663 193.74 131.069 192.276 133.215Z" fill="url(#paint0_linear)"/>
<defs>
<linearGradient id="paint0_linear" x1="68.875" y1="28.0247" x2="360.525" y2="180.975" gradientUnits="userSpaceOnUse">
<stop stop-color="#FF9237"/>
<stop offset="0.25" stop-color="#FFCD4F"/>
<stop offset="0.479167" stop-color="#FFE7A9"/>
<stop offset="0.762577" stop-color="#FFCB49"/>
<stop offset="1" stop-color="#FD9733"/>
</linearGradient>
</defs>
</svg>
