<svg width="14" height="18" viewBox="0 0 14 18" fill="none" xmlns="http://www.w3.org/2000/svg">
<path fill-rule="evenodd" clip-rule="evenodd" d="M3 4C3 1.79086 4.79086 0 7 0C9.20914 0 11 1.79086 11 4V6C12.6569 6 14 7.34315 14 9V13C14 15.7614 11.7614 18 9 18H5C2.23858 18 0 15.7614 0 13V9C0 7.34315 1.34315 6 3 6V4ZM9 4V6H5V4C5 2.89543 5.89543 2 7 2C8.10457 2 9 2.89543 9 4ZM9 10C9 10.7403 8.59779 11.3866 8 11.7324V14C8 14.5523 7.55229 15 7 15C6.44771 15 6 14.5523 6 14V11.7324C5.40221 11.3866 5 10.7403 5 10C5 8.89543 5.89543 8 7 8C8.10457 8 9 8.89543 9 10Z" fill="#D8991E"/>
</svg>
