<svg width="31" height="20" viewBox="0 0 31 20" fill="none" xmlns="http://www.w3.org/2000/svg">
<path d="M6.61597 0C5.70342 0 5.24715 0.380229 4.94297 1.29278L0.152091 17.0342C0.0760455 17.3384 0 17.5665 0 17.7947C0 18.4791 0.760456 18.6312 1.21673 18.7833L4.41065 19.8479C4.63878 19.924 4.79087 20 5.01901 20C5.55133 20 5.70342 19.6198 6.0076 19.0874L15.1331 1.97719C15.2852 1.59696 15.5133 1.21673 15.5133 0.836503C15.5133 0.076047 14.7528 0 13.9924 0H6.61597ZM21.9772 0C21.0646 0 20.6084 0.380229 20.3042 1.29278L15.5133 17.0342C15.4373 17.3384 15.3612 17.5665 15.3612 17.7947C15.3612 18.4791 16.1217 18.6312 16.5779 18.7833L19.7719 19.8479C20 19.924 20.1521 20 20.3802 20C20.9125 20 21.0646 19.6198 21.3688 19.0874L30.4943 1.97719C30.6464 1.59696 30.8745 1.21673 30.8745 0.836503C30.8745 0.076047 30.1141 0 29.3536 0H21.9772Z" fill="#682700"/>
</svg>
